<svg width="87" height="98" fill="none" xmlns="http://www.w3.org/2000/svg"><path d="M39.666 1.026a7.674 7.674 0 0 1 7.668 0l35.832 20.67A7.66 7.66 0 0 1 87 28.33v41.338a7.66 7.66 0 0 1-3.834 6.635l-35.832 20.67a7.674 7.674 0 0 1-7.668 0L3.834 76.303A7.66 7.66 0 0 1 0 69.67V28.331a7.66 7.66 0 0 1 3.834-6.635l35.832-20.67Z" fill="#9455E4"/><path d="M69.167 66.917h-5.5V26.583A4.589 4.589 0 0 0 59.083 22s-38.5 0-38.5.025A4.54 4.54 0 0 0 16 26.583v38.5a2.75 2.75 0 0 0 2.75 2.75h4.583v4.584A4.692 4.692 0 0 0 27.917 77h38.5A4.59 4.59 0 0 0 71 72.417V68.75a1.834 1.834 0 0 0-1.833-1.833ZM23.333 66H18.75a.917.917 0 0 1-.917-.917v-38.5a2.78 2.78 0 0 1 2.75-2.75 2.86 2.86 0 0 1 2.75 2.908V66Zm7.334 2.75v3.509a2.858 2.858 0 0 1-2.475 2.895 2.928 2.928 0 0 1-.236.013h-.04a2.777 2.777 0 0 1-2.75-2.75V26.74a4.815 4.815 0 0 0-.994-2.908h34.911a2.75 2.75 0 0 1 2.75 2.75v40.334H32.5a1.833 1.833 0 0 0-1.833 1.833Zm38.5 3.667a2.75 2.75 0 0 1-2.75 2.75h-34.89a4.833 4.833 0 0 0 .973-2.908V68.75h36.667v3.667Z" fill="#fff"/><path d="M42.703 44.733a1.843 1.843 0 0 0 1.594 0 11.434 11.434 0 0 0 6.536-10.145v-4.914a1.824 1.824 0 0 0-1.527-1.807 37.165 37.165 0 0 1-5.256-1.192 1.783 1.783 0 0 0-1.106 0 37.12 37.12 0 0 1-5.253 1.192 1.824 1.824 0 0 0-1.524 1.807v4.914a11.435 11.435 0 0 0 6.535 10.145ZM38 29.677a37.733 37.733 0 0 0 5.485-1.26c1.806.552 3.649.972 5.515 1.256v4.915a9.724 9.724 0 0 1-5.5 8.495 9.717 9.717 0 0 1-5.5-8.496v-4.91Z" fill="#fff"/><path d="M42.583 38.5h.065a.916.916 0 0 0 .669-.367l2.75-3.666a.917.917 0 0 0-1.467-1.1l-2.108 2.82-.17-.17a.917.917 0 0 0-1.297 1.297l.917.916c.17.171.4.268.641.27Zm-13.75 11h29.334a.917.917 0 0 0 0-1.833H28.833a.916.916 0 1 0 0 1.833Zm29.334 1.833h-19.25a.917.917 0 0 0 0 1.834h19.25a.917.917 0 0 0 0-1.834Zm-29.334 1.834h6.417a.917.917 0 0 0 0-1.834h-6.417a.917.917 0 0 0 0 1.834Zm30.25 2.75a.917.917 0 0 0-.916-.917H28.833a.917.917 0 0 0 0 1.833h29.334a.917.917 0 0 0 .916-.916Zm-.694 6.443-3.667-.916a.917.917 0 0 0-.632.069l-.888.445-.583-1.748a.918.918 0 0 0-1.517-.358l-2.75 2.75a.917.917 0 0 0 1.296 1.296l1.7-1.7.45 1.342a.917.917 0 0 0 1.278.53l1.53-.765 3.339.834a.917.917 0 0 0 .444-1.778Z" fill="#fff"/></svg>