<svg width="87" height="98" fill="none" xmlns="http://www.w3.org/2000/svg"><path d="M39.666 1.026a7.674 7.674 0 0 1 7.668 0l35.832 20.67A7.66 7.66 0 0 1 87 28.33v41.338a7.66 7.66 0 0 1-3.834 6.635l-35.832 20.67a7.674 7.674 0 0 1-7.668 0L3.834 76.303A7.66 7.66 0 0 1 0 69.67V28.331a7.66 7.66 0 0 1 3.834-6.635l35.832-20.67Z" fill="#FFA51D"/><path d="M69.57 39.47 37.83 21.116a.858.858 0 0 0-.826-.02l-21.461 11.03a.86.86 0 0 0-.063 1.492L31.33 43.63a.858.858 0 1 0 .916-1.454l-14.58-9.21 19.71-10.132L67.44 40.222 47.69 51.938l-.439-.277a.858.858 0 0 0-1.295.917.86.86 0 0 0 .38.537l.881.557a.858.858 0 0 0 .897.012l21.465-12.732a.857.857 0 0 0-.008-1.482Z" fill="#fff"/><path d="M42.4 41.264h.228c3.327-.09 5.899-2.053 5.855-4.469a3.556 3.556 0 0 0-1.176-2.52 6.866 6.866 0 0 0-4.848-1.641c-3.326.09-5.898 2.053-5.854 4.468a3.556 3.556 0 0 0 1.174 2.521 6.764 6.764 0 0 0 4.62 1.64Zm.1-6.919h.18a5.029 5.029 0 0 1 3.436 1.168 1.908 1.908 0 0 1 .645 1.31c.025 1.413-1.891 2.658-4.184 2.721a5.15 5.15 0 0 1-3.615-1.165 1.903 1.903 0 0 1-.645-1.312c-.027-1.413 1.893-2.66 4.183-2.721Z" fill="#fff"/><path d="M24.591 33.914a.858.858 0 0 0 .078 1.399l19.935 12.55a.857.857 0 0 0 .861.032 6.428 6.428 0 0 1 2.472-.734h.013a6.644 6.644 0 0 1 3.238.736.854.854 0 0 0 .864 0l8.235-4.883a.857.857 0 0 0 .216-1.297 1.843 1.843 0 0 1-.105-2.448.859.859 0 0 0-.266-1.252L39.876 26.305a.864.864 0 0 0-.782-.04c-.799.35-1.658.54-2.53.558a6.59 6.59 0 0 1-2.621-.45.866.866 0 0 0-.716.032l-7.394 3.8a.86.86 0 0 0-.382 1.133c.112.23.173.481.178.737a2.386 2.386 0 0 1-1.038 1.839Zm2.681-2.521 6.403-3.288c.946.317 1.94.464 2.937.434a8.486 8.486 0 0 0 2.77-.537l19.16 11.08a3.438 3.438 0 0 0 .097 2.906l-7.053 4.182a8.767 8.767 0 0 0-3.627-.727 7.171 7.171 0 0 0-2.843.712L26.494 34.431a3.73 3.73 0 0 0 .853-2.387 3.413 3.413 0 0 0-.075-.648v-.003Zm-5.424 11.698a.858.858 0 0 0 .458-1.585l-5.947-3.759a.858.858 0 1 0-.916 1.454l5.947 3.758a.85.85 0 0 0 .458.132Zm47.998 2.269a.86.86 0 0 0-1.178-.297L47.652 57.52l-.404-.254a.858.858 0 0 0-1.17 1.224c.068.093.155.17.254.229l.847.535a.848.848 0 0 0 .458.133.858.858 0 0 0 .439-.115l21.465-12.73a.857.857 0 0 0 .305-1.18ZM16.36 42.543a.858.858 0 0 0-1.295.917.86.86 0 0 0 .38.537l2.428 1.536a.858.858 0 1 0 .915-1.454l-2.428-1.536Zm52.308 7.312-21.016 12.46-.404-.254a.858.858 0 0 0-1.17 1.225c.068.092.155.17.254.228l.847.535a.85.85 0 0 0 .458.134.861.861 0 0 0 .439-.114l21.465-12.73a.858.858 0 1 0-.876-1.478l.003-.006ZM29.95 76c7.248 0 14.952-1.987 14.952-5.668V51.48a.844.844 0 0 0-.076-.344c-.75-3.316-8.014-5.101-14.876-5.101-6.861 0-14.127 1.785-14.874 5.101a.842.842 0 0 0-.076.344v18.852C15 74.013 22.703 76 29.95 76Zm0-1.719c-8.198 0-13.233-2.3-13.233-3.95v-2.8c2.672 1.917 8.06 2.935 13.233 2.935s10.564-1.018 13.235-2.936v2.802c.002 1.649-5.036 3.95-13.235 3.95Zm13.237-16.03c0 1.648-5.038 3.949-13.234 3.949-8.197 0-13.236-2.3-13.236-3.95v-3.813c2.672 1.918 8.06 2.936 13.233 2.936s10.564-1.018 13.235-2.936l.002 3.813ZM29.95 63.918c5.173 0 10.564-1.018 13.235-2.936v3.815c0 1.648-5.038 3.95-13.235 3.95-8.196 0-13.233-2.302-13.233-3.95v-3.815c2.672 1.918 8.06 2.936 13.233 2.936Zm0-16.165c8.2 0 13.237 2.3 13.237 3.955 0 1.654-5.038 3.95-13.234 3.95-8.197 0-13.236-2.306-13.236-3.95 0-1.644 5.035-3.955 13.233-3.955Z" fill="#fff"/></svg>