<svg width="87" height="98" fill="none" xmlns="http://www.w3.org/2000/svg"><path d="M39.666 1.026a7.674 7.674 0 0 1 7.668 0l35.832 20.67A7.66 7.66 0 0 1 87 28.33v41.338a7.66 7.66 0 0 1-3.834 6.635l-35.832 20.67a7.674 7.674 0 0 1-7.668 0L3.834 76.303A7.66 7.66 0 0 1 0 69.67V28.331a7.66 7.66 0 0 1 3.834-6.635l35.832-20.67Z" fill="#2DC36A"/><path d="m70.84 47.86-6.028-16.19a2.548 2.548 0 0 0-1.338-1.436 2.56 2.56 0 0 0-1.964-.075l-4.033 1.495a2.565 2.565 0 0 0-1.514 3.295l.065.176c-.954.362-2.019-.033-3.647-.713-2.43-1.016-5.727-2.38-9.912.233-3.397-2.11-6.062-1.59-8.422-1.12-1.2.237-2.341.461-3.52.34a2.55 2.55 0 0 0-1.76-2.172l-4.096-1.319a2.56 2.56 0 0 0-1.959.16 2.547 2.547 0 0 0-1.274 1.493l-5.315 16.434a2.565 2.565 0 0 0 1.657 3.227l4.094 1.318a2.563 2.563 0 0 0 1.959-.16 2.57 2.57 0 0 0 .604-.444c.026.125.06.248.09.371l-1.025 1.912a3.535 3.535 0 0 0-.233 2.73c.283.89.882 1.6 1.667 1.992.684.365 1.438.48 2.153.374-.204.676-.2 1.418.022 2.113.283.89.882 1.601 1.667 1.992a3.48 3.48 0 0 0 2.662.26c.358-.109.69-.27.988-.476.288.876.882 1.575 1.658 1.962a3.48 3.48 0 0 0 2.662.26c.198-.06.39-.137.571-.229a4.088 4.088 0 0 0 1.996 2.552 3.34 3.34 0 0 0 1.557.401c1.017 0 2.101-.52 2.885-1.983l.153-.285.174.09.409.213c.5.257.99.37 1.451.37 1.149 0 2.114-.706 2.607-1.644.34-.645.459-1.413.294-2.158.415.022.834-.027 1.243-.151a3.563 3.563 0 0 0 2.126-1.736 3.54 3.54 0 0 0 .386-2.193 3.6 3.6 0 0 0 2.432.114 3.594 3.594 0 0 0 2.143-1.75 3.572 3.572 0 0 0 .386-2.24c1.254.498 2.464.27 3.304-.648.852-.93 1.138-2.357.82-3.63l.206-.073.012-.004.086.23a2.573 2.573 0 0 0 3.302 1.51l4.033-1.494a2.565 2.565 0 0 0 1.514-3.295ZM23.693 50.9c-.088.272-.28.495-.538.627-.26.132-.552.157-.825.069l-4.094-1.319a1.08 1.08 0 0 1-.698-1.36l5.314-16.434c.088-.273.28-.496.538-.628a1.086 1.086 0 0 1 .825-.069l4.094 1.319c.273.088.497.278.63.536.132.258.156.55.068.823l-4.243 13.122a.742.742 0 0 0-.05.112c-.036.115-.065.23-.098.346l-.923 2.855Zm1.926 7.19a1.863 1.863 0 0 1-.934-1.124 2.045 2.045 0 0 1 .128-1.58l1.158-2.16v-.001l.553-1.032a2.016 2.016 0 0 1 2.679-.844c.635.443 1.589 1.386.865 2.735l-1.713 3.196a2.018 2.018 0 0 1-2.736.81Zm6.58 3.667c-.252.47-.675.815-1.19.97a2.012 2.012 0 0 1-1.548-.157 1.864 1.864 0 0 1-.934-1.124 2.045 2.045 0 0 1 .128-1.58l2.33-4.346c.251-.47.674-.815 1.19-.97a1.997 1.997 0 0 1 2.502 1.335 1.987 1.987 0 0 1-.149 1.526l-.37.692-.001.002-1.505 2.807-.453.845Zm4.117 2.716a2.012 2.012 0 0 1-1.547-.157c-.442-.22-.773-.62-.934-1.124a2.047 2.047 0 0 1 .126-1.578l.002-.002 1.505-2.808v-.002a1.994 1.994 0 0 1 1.19-.968 2.005 2.005 0 0 1 2.354 2.861l-1.42 2.649v.001l-.086.158a1.99 1.99 0 0 1-1.19.97Zm3.7 2.435c-.974-.52-1.67-1.825-1.113-2.865l.667-1.244v-.002a2.33 2.33 0 0 1 1.27-1.066c.545-.194 1.093-.168 1.542.072.98.523 1.138.98 1.17 1.278.052.451-.14 1.051-.619 1.945v.002l-.486.906c-.823 1.536-1.876 1.27-2.43.974Zm7.219-2.219c-.35.668-1.124 1.126-2.062.645l-.398-.208a41.994 41.994 0 0 0-.184-.096c.3-.668.52-1.394.44-2.114-.092-.811-.543-1.488-1.362-2.059l2.927 1.569c.978.685.975 1.624.639 2.263Zm12.532-11.073c-.479.524-1.136.568-1.953.132l-2.12-1.132a.09.09 0 0 0-.004-.002c-.022-.011-.045-.018-.067-.027l-6.835-3.703a.744.744 0 0 0-1.008.298.74.74 0 0 0 .299 1.006l6.98 3.78c.462.27.805.696.963 1.215a2.117 2.117 0 0 1-1.422 2.652 2.124 2.124 0 0 1-1.625-.157l-2.107-1.125a.75.75 0 0 0-.12-.08l-5.086-2.713a.744.744 0 0 0-1.006.304.74.74 0 0 0 .305 1.004l4.959 2.645a.76.76 0 0 0 .12.08 2.09 2.09 0 0 1 1.018 1.244 2.087 2.087 0 0 1-1.4 2.613 2.093 2.093 0 0 1-1.602-.155l-1.076-.574a.733.733 0 0 0-.167-.063l-4.343-2.326a.742.742 0 1 0-.703 1.306l.913.49a3.35 3.35 0 0 0-1.977-.103 3.493 3.493 0 0 0-4.452-3.818 3.523 3.523 0 0 0-.152-.953 3.491 3.491 0 0 0-4.28-2.348c-.014-1.26-.815-2.308-1.77-2.976a.745.745 0 0 0-.104-.068 3.51 3.51 0 0 0-4.203.694 7.812 7.812 0 0 1 .304-2.304l4.241-13.119c1.434.166 2.761-.097 4.05-.353 2.14-.425 4.174-.829 6.801.6-.572.455-1.148.974-1.72 1.551-.453.457-.92.914-1.374 1.36-1.657 1.623-3.089 3.026-3.498 4.022a.74.74 0 0 0 .091.724c2.959 3.97 6.544 2.622 9.423 1.54 2.159-.81 4.023-1.512 5.508-.34a.745.745 0 0 0 .089.061c.71.41 1.686.892 2.817 1.449 2.736 1.348 6.481 3.194 7.45 4.662.65.986.444 2.35-.157 3.007Zm1.283-3.977c-1.298-1.756-4.956-3.562-7.917-5.022-1.083-.533-2.022-.996-2.687-1.377-2.133-1.645-4.561-.733-6.91.15-2.783 1.045-5.204 1.954-7.415-.67.52-.775 1.76-1.99 2.965-3.171.46-.45.93-.912 1.388-1.374.794-.8 1.59-1.474 2.364-2.006 3.744-2.569 6.52-1.411 8.969-.388 1.145.478 2.314.967 3.47.967a3.62 3.62 0 0 0 1.268-.234l4.84 13.004-.335.12Zm7.757.126-4.033 1.494a1.085 1.085 0 0 1-1.392-.636l-6.026-16.19a1.07 1.07 0 0 1 .033-.824c.121-.264.336-.464.605-.564l4.033-1.494a1.073 1.073 0 0 1 .827.032c.264.121.465.336.565.604l6.026 16.189a1.08 1.08 0 0 1-.638 1.389Z" fill="#fff"/></svg>