<svg width="40" height="40" viewBox="0 0 40 40" fill="none" xmlns="http://www.w3.org/2000/svg">
<circle cx="20" cy="20" r="20" fill="#EE3F58"/>
<path d="M10.4388 10.4579C10.7199 10.1767 11.101 10.0188 11.4984 10.0188C11.8958 10.0188 12.2769 10.1767 12.558 10.4579L20.4906 18.3974L28.4233 10.4579C28.5615 10.3147 28.7269 10.2004 28.9098 10.1218C29.0926 10.0432 29.2893 10.0018 29.4883 10.0001C29.6873 9.99833 29.8846 10.0363 30.0688 10.1117C30.253 10.1871 30.4203 10.2985 30.561 10.4393C30.7018 10.5802 30.813 10.7477 30.8884 10.932C30.9638 11.1163 31.0017 11.3139 30.9999 11.513C30.9982 11.7122 30.9569 11.909 30.8783 12.092C30.7998 12.275 30.6856 12.4406 30.5425 12.5789L22.6098 20.5184L30.5425 28.4579C30.8155 28.7408 30.9665 29.1197 30.9631 29.513C30.9597 29.9063 30.8021 30.2825 30.5242 30.5607C30.2463 30.8388 29.8704 30.9965 29.4775 30.9999C29.0845 31.0034 28.7059 30.8522 28.4233 30.5789L20.4906 22.6394L12.558 30.5789C12.2753 30.8522 11.8967 31.0034 11.5038 30.9999C11.1108 30.9965 10.7349 30.8388 10.4571 30.5607C10.1792 30.2825 10.0216 29.9063 10.0182 29.513C10.0147 29.1197 10.1658 28.7408 10.4388 28.4579L18.3715 20.5184L10.4388 12.5789C10.1578 12.2976 10 11.9162 10 11.5184C10 11.1207 10.1578 10.7392 10.4388 10.4579Z" fill="white"/>
</svg>
