<svg width="74" height="49" fill="none" xmlns="http://www.w3.org/2000/svg"><path d="M21.788 43.951c-.454 0-1.003.442-1.129.91-.037.142-.02.236.002.263.013.017.073.045.18.045.453 0 .999-.44 1.125-.907.039-.145.021-.239 0-.266-.012-.019-.071-.045-.178-.045Zm31.696-19.297 1.785-6.643a1.157 1.157 0 0 1 1.117-.856H67.77l-.186-1.324H54.212l-2.367 8.822h1.639v.002Z" fill="#8BD25C"/><path d="M22.817 40.12c-2.56 0-5.303 2.17-5.992 4.741-.317 1.174-.165 2.244.428 3.017.555.723 1.464 1.122 2.56 1.122 2.556 0 5.3-2.17 5.992-4.738.316-1.174.163-2.247-.43-3.02-.553-.723-1.462-1.122-2.558-1.122Zm1.383 4.74c-.396 1.469-1.87 2.618-3.357 2.618-.817 0-1.551-.345-2.014-.946-.474-.616-.621-1.442-.403-2.267.396-1.474 1.872-2.625 3.363-2.625.817 0 1.551.345 2.014.948.474.617.618 1.446.397 2.272Zm1.35-17.756c7.488 0 13.582-6.08 13.582-13.552C39.132 6.08 33.04 0 25.55 0c-7.488 0-13.58 6.08-13.58 13.552 0 7.472 6.092 13.552 13.581 13.552ZM24.394 6.749a1.155 1.155 0 0 1 2.312 0v6.289l3.079 2.767a1.156 1.156 0 0 1-1.547 1.718l-3.461-3.112a1.154 1.154 0 0 1-.383-.86V6.75Z" fill="#8BD25C"/><path d="M25.55 29.414c-4.099 0-7.84-1.556-10.66-4.107l-2.173 8.09h34.387l6.562-24.453H40.759c.445 1.46.685 3.006.685 4.61 0 8.745-7.13 15.86-15.894 15.86ZM60.66 40.12c-2.56 0-5.305 2.17-5.993 4.741-.316 1.174-.165 2.244.428 3.017C55.65 48.6 56.56 49 57.655 49c2.556 0 5.3-2.17 5.992-4.738.315-1.176.162-2.249-.432-3.023-.554-.722-1.463-1.12-2.556-1.12Zm1.383 4.741c-.396 1.469-1.87 2.618-3.358 2.618-.816 0-1.55-.345-2.013-.946-.474-.616-.621-1.442-.402-2.267.396-1.473 1.872-2.625 3.363-2.625.817 0 1.551.345 2.014.948.472.617.617 1.446.396 2.272Zm-6.164-20.207h12.95l-.733-5.187H57.273l-1.395 5.188Z" fill="#8BD25C"/><path d="M73.261 28.128c-.6-.782-1.614-1.163-3.1-1.163H51.223l-2.116 7.885a1.157 1.157 0 0 1-1.117.857H12.097l-2.067 7.698h4.848c1.266-3.198 4.589-5.597 7.94-5.597 1.832 0 3.393.719 4.396 2.026.754.983 1.116 2.237 1.055 3.57H52.72c1.266-3.199 4.588-5.598 7.94-5.598 1.83 0 3.388.72 4.39 2.024.757.985 1.12 2.238 1.059 3.574h4.992l2.286-8.52c.857-3.194.813-5.532-.127-6.756ZM59.63 43.951c-.453 0-1.003.442-1.128.91-.038.143-.02.236.001.263.013.017.074.045.18.045.453 0 1-.44 1.125-.907.04-.145.022-.239 0-.266-.013-.019-.07-.045-.178-.045ZM9.126 32.788H7.643a1.155 1.155 0 1 0 0 2.31h1.483a1.155 1.155 0 1 0 0-2.31Zm1.101-1.786h.004a1.156 1.156 0 0 0 .005-2.311l-7.965-.033h-.005a1.156 1.156 0 0 0-.004 2.31l7.965.034Zm-1.085-4.167h2.077a1.155 1.155 0 1 0 0-2.31H9.142a1.155 1.155 0 1 0 0 2.31Zm-3.504 0a1.155 1.155 0 1 0 0-2.31H1.156a1.155 1.155 0 1 0 0 2.31h4.482Zm-1.384 5.953H3.38a1.155 1.155 0 1 0 0 2.31h.873a1.155 1.155 0 1 0 0-2.31Z" fill="#8BD25C"/></svg>