<svg width="42" height="50" fill="none" xmlns="http://www.w3.org/2000/svg"><path d="M22.672 0c.816.136 1.63.23 2.436.429 3.909.95 6.145 3.46 6.741 7.515.356 2.404.491 4.818.293 7.243-.512 6.188-4.683 10.379-9.209 11.821-1.954.628-3.773.21-5.508-.668-4.296-2.185-6.804-5.697-7.442-10.474-.397-2.989-.24-5.978.408-8.915.805-3.617 3.094-5.801 6.72-6.564C17.855.23 18.607.125 19.349 0h3.324ZM11.468 11.675c-.032 1.516-.095 2.916.167 4.317.836 4.599 3.397 7.787 7.818 9.407.71.261 1.442.376 2.205.23 2.195-.44 4.014-1.579 5.55-3.157 2.154-2.205 3.167-4.912 3.356-7.954.052-.91 0-1.819 0-2.738-.325.376-.575.752-.962 1.024-.408.282-.805.313-1.202-.021-.314-.261-.627-.512-.93-.784-3.146-2.885-7.86-2.99-10.985-1.348-1.004.533-1.84 1.275-2.697 2.007-.617.522-1.066.49-1.652-.084-.24-.24-.397-.543-.668-.889v-.01Zm13.138-6.522c0-.146 0-.157-.251-.23a11.47 11.47 0 0 0-6.71 0c-.21.063-.293.136-.188.366.22.491.418.982.595 1.494.084.251.21.272.44.21a8.978 8.978 0 0 1 5.037 0c.126.03.282.114.345-.042a64.18 64.18 0 0 0 .721-1.798h.01Z" fill="#8BD25C"/><path d="M21.052 32.485c.355-.92.763-1.808 1.024-2.728.293-1.045.837-1.63 1.944-1.86 1.13-.23 2.112-.899 3.042-1.6.314-.24.638-.323.993-.125 3.115 1.673 6.26 3.314 9.281 5.164 1.464.898 2.237 2.32 2.864 3.836.795 1.933 1.234 3.961 1.589 6.02.052.324-.031.606-.188.889-.627 1.086-1.547 1.88-2.56 2.57-.722.492-1.506.9-2.3 1.265-.262.126-.46.157-.68-.094-.167-.188-.418-.303-.648-.47.272-.199.596-.355.826-.617.638-.742.721-1.735.22-2.634-2.28-4.045-8.06-4.452-10.87-.763-.21.283-.43.377-.764.377-2.54-.01-5.08-.01-7.609 0-.334 0-.554-.084-.773-.366-2.77-3.596-8.278-3.334-10.724.491-.794 1.233-.68 2.676.899 3.533-.261.199-.565.324-.774.585-.125.168-.26.073-.397.021-1.599-.71-3.094-1.578-4.296-2.895-.167-.178-.313-.376-.46-.565-.376-.501-.533-1.024-.397-1.682.502-2.478 1.098-4.913 2.29-7.16.553-1.035 1.306-1.881 2.34-2.488 2.959-1.735 5.98-3.355 8.99-4.985.344-.189.679-.168 1.003.073 1.191.91 2.498 1.578 3.961 1.912.366.084.575.314.71.67.398 1.076.816 2.153 1.224 3.23.052.125.062.281.24.417v-.02Z" fill="#8BD25C"/><path d="M9.43 47.16c.585 0 1.17-.02 1.755 0 .335.021.46-.125.502-.428a9.389 9.389 0 0 0-.02-2.812c-.043-.324-.2-.376-.492-.376-1.14.01-2.279 0-3.418 0-.198 0-.45.083-.564-.167-.105-.23.083-.398.198-.565 1.944-2.947 6.282-2.738 7.944.387.177.334.355.45.732.45 3.281-.022 6.574-.011 9.856 0 .366 0 .554-.095.742-.44.836-1.547 2.153-2.414 3.92-2.477 1.745-.063 3.104.69 4.076 2.143.094.146.25.282.157.48-.105.22-.325.189-.513.189-1.16 0-2.31.01-3.47 0-.324 0-.46.104-.502.418a10.18 10.18 0 0 0 0 2.811c.042.304.178.387.481.387 1.15-.02 2.31 0 3.47 0 .188 0 .408-.063.534.157.125.22-.053.376-.147.533-1.86 2.979-6.355 2.822-7.985-.303-.199-.376-.408-.491-.816-.48-3.25.02-6.511.02-9.762 0-.386 0-.585.093-.773.46-1.61 3.114-6.02 3.333-7.954.396-.105-.167-.303-.324-.188-.564.125-.24.366-.167.564-.167H9.42v-.021l.01-.01Z" fill="#8BD25C"/></svg>