<svg width="54" height="50" fill="none" xmlns="http://www.w3.org/2000/svg"><path d="M26.664.003H41.59c2.565 0 5.131-.004 7.696-.002 1.883 0 3.35 1.15 3.838 2.995.087.327.121.66.121.998 0 7.07-.004 14.142-.004 21.212 0 4.422.006 8.846.004 13.267 0 1.73-1.062 3.082-2.714 3.473a3.684 3.684 0 0 1-.856.086c-5.574 0-11.148 0-16.721-.01-.333 0-.412.08-.356.408.317 1.848 1.385 3.078 3.024 3.855.84.399 1.747.537 2.64.74a1.49 1.49 0 0 1 1.172 1.665c-.089.746-.737 1.31-1.526 1.31-5.453 0-10.903 0-16.355-.002-2.09 0-4.181.002-6.27 0-.999-.002-1.632-.72-1.534-1.72.068-.692.618-1.202 1.428-1.313 1.116-.152 2.18-.459 3.15-1.06 1.258-.78 2.029-1.903 2.314-3.37.098-.501.09-.503-.402-.503-5.541 0-11.082-.018-16.621.01-2.151.01-3.627-1.692-3.619-3.66.033-8.576.013-17.154.013-25.73v-8.62C.013 1.725 1.707.006 3.97.006h22.69l.005-.003Zm-.03 33.588h22.561c.621 0 .86-.242.86-.875 0-.471-.004-.944-.004-1.414 0-9.037.002-18.074.004-27.11 0-.73-.214-.95-.924-.95H31.252c-4.488 0-8.979.004-13.467.004H3.986c-.527 0-.771.249-.771.784-.005 1.93-.005 3.86-.005 5.792v15.154c0 2.615.002 5.23 0 7.847 0 .31.102.545.38.69.186.097.388.074.584.074h22.46v.004Zm.01 2.638c-1-.023-1.875.822-1.904 1.84a1.914 1.914 0 0 0 1.895 1.994c.998.023 1.864-.846 1.889-1.898.025-1.051-.81-1.912-1.88-1.938v.002Z" fill="#8BD25C"/><path d="M38.326 9.73c0 1.055.014 2.108-.01 3.162-.005.301.132.377.362.45 1.973.611 3.94 1.234 5.915 1.84.265.082.317.167.219.437-1.104 3.053-4.108 4.93-7.294 4.547-3.157-.381-5.64-2.887-6.031-6.084-.462-3.78 2.187-7.28 5.9-7.793.625-.086.938.188.938.82v2.625l.001-.003ZM21.46 20.24v10.103c0 .597-.124.742-.705.752-.846.015-1.693.015-2.54.01-.436-.004-.62-.204-.62-.647 0-2.873.005-5.746.005-8.619 0-3.03-.004-6.06-.006-9.091 0-.91-.002-1.818 0-2.728 0-.51.173-.678.681-.68h2.455c.58 0 .73.15.73.73v10.17Zm2.137 2.773v-7.49c0-.46.192-.664.639-.67.865-.01 1.731-.011 2.597-.01.44 0 .648.213.648.665l.004 11.47.002 3.398c0 .541-.154.71-.681.719-.847.011-1.693.015-2.54.015-.471 0-.671-.215-.671-.709v-7.386h.002v-.002Zm-12.017.407v-6.97c0-.583.156-.745.722-.745.838 0 1.68 0 2.518.004.439.002.625.187.627.634.002 4.713.002 9.426 0 14.138 0 .422-.167.604-.577.61-.89.014-1.78.017-2.67.01-.447-.004-.618-.202-.618-.682-.002-2.334 0-4.668 0-7.002l-.002.002Z" fill="#8BD25C"/><path d="M46.278 12.57c.008.512-.079 1.096-.223 1.676-.056.223-.118.277-.354.201-1.892-.605-3.788-1.191-5.682-1.789-.642-.203-.64-.21-.64-.92 0-1.963.008-3.925-.008-5.888-.002-.34.104-.402.414-.385 3.648.219 6.497 3.293 6.493 7.105ZM5.58 26.417v-4.006c0-.482.161-.65.629-.65.873 0 1.745 0 2.618.004.425.002.612.186.612.611.002 2.703.002 5.406 0 8.111 0 .403-.162.594-.552.602a88.17 88.17 0 0 1-2.769.014c-.365-.004-.539-.217-.539-.616-.002-1.357 0-2.714 0-4.072v.002Zm33.035-2.224c-2.486 0-4.973-.004-7.46.006-.267 0-.372-.051-.35-.342a6.342 6.342 0 0 0 0-.975c-.018-.258.07-.312.313-.312 2.11.01 4.22.006 6.331.006 2.873 0 5.747.003 8.62-.006.265 0 .376.05.351.341a7.05 7.05 0 0 0 0 .975c.018.26-.077.313-.317.313-1.834-.01-3.67-.006-5.503-.006h-1.989.004Zm-.005 1.621c2.487 0 4.974.004 7.464-.006.266 0 .373.055.348.344-.025.3-.02.607.004.908.023.283-.046.379-.354.377-2.09-.016-4.18-.008-6.27-.008-2.865 0-5.727-.008-8.592.008-.352.002-.435-.104-.402-.428.027-.268.023-.54 0-.807-.025-.295.052-.396.37-.394 2.475.015 4.953.008 7.43.008l.001-.002ZM36.368 29.1c1.747 0 3.492.006 5.239-.005.25 0 .325.06.31.314-.024.336-.02.674 0 1.01.013.24-.076.303-.303.3-1.115-.01-2.233-.003-3.35-.003-2.354 0-4.709-.008-7.064.008-.33.002-.42-.094-.39-.413a5.303 5.303 0 0 0 0-.874c-.02-.258.052-.342.323-.34 1.745.013 3.492.006 5.237.006l-.002-.002Z" fill="#8BD25C"/></svg>