<svg width="117" height="140" fill="none" xmlns="http://www.w3.org/2000/svg"><path d="M62.793 0c2.283.38 4.566.644 6.819 1.2 10.945 2.663 17.208 9.687 18.876 21.042.995 6.732 1.376 13.492.82 20.282-1.434 17.325-13.111 29.06-25.783 33.1-5.473 1.756-10.565.585-15.423-1.873C36.074 67.634 29.05 57.8 27.265 44.426c-1.113-8.37-.674-16.74 1.14-24.964 2.255-10.126 8.664-16.243 18.82-18.38C49.302.645 51.409.353 53.487 0h9.306ZM31.42 32.69c-.088 4.244-.263 8.166.468 12.087C34.23 57.654 41.4 66.58 53.78 71.117c1.99.731 4.039 1.053 6.175.643 6.146-1.229 11.238-4.419 15.54-8.838 6.03-6.175 8.868-13.755 9.395-22.271.146-2.547 0-5.093 0-7.668-.907 1.053-1.61 2.107-2.693 2.868-1.141.79-2.253.878-3.365-.059-.878-.731-1.756-1.434-2.605-2.195-8.809-8.077-22.008-8.37-30.758-3.775-2.81 1.493-5.151 3.57-7.55 5.62-1.727 1.463-2.986 1.375-4.625-.235-.673-.673-1.112-1.522-1.873-2.488v-.029Zm36.787-18.262c0-.41 0-.439-.702-.644-6.263-1.873-12.526-1.873-18.789 0-.585.176-.82.38-.526 1.025a51.893 51.893 0 0 1 1.668 4.185c.234.702.585.76 1.229.585 4.712-1.346 9.394-1.346 14.106 0 .351.088.79.322.966-.117a180.612 180.612 0 0 0 2.019-5.034h.03Z" fill="#8BD25C" fill-opacity=".45"/><path d="M58.257 90.96c.995-2.576 2.136-5.064 2.868-7.64.82-2.926 2.341-4.565 5.443-5.209 3.161-.644 5.912-2.517 8.517-4.477.878-.674 1.785-.908 2.78-.352 8.721 4.683 17.53 9.278 25.988 14.458 4.097 2.517 6.263 6.497 8.019 10.74 2.224 5.415 3.453 11.092 4.448 16.858.146.907-.088 1.697-.527 2.487-1.756 3.044-4.331 5.268-7.17 7.2-2.019 1.375-4.214 2.517-6.438 3.541-.732.351-1.288.439-1.903-.263-.468-.527-1.17-.849-1.814-1.317.76-.556 1.668-.995 2.312-1.727 1.785-2.078 2.019-4.858.615-7.375-6.38-11.326-22.564-12.467-30.437-2.136-.585.79-1.2 1.053-2.136 1.053-7.112-.029-14.223-.029-21.306 0-.936 0-1.55-.234-2.165-1.024-7.756-10.068-23.179-9.336-30.027 1.375-2.224 3.454-1.902 7.492 2.517 9.892-.732.556-1.58.907-2.166 1.639-.35.468-.731.205-1.112.059-4.478-1.99-8.662-4.42-12.028-8.107-.468-.498-.878-1.054-1.288-1.58-1.053-1.405-1.492-2.868-1.112-4.712 1.405-6.936 3.073-13.755 6.41-20.048 1.55-2.897 3.658-5.267 6.555-6.965 8.282-4.858 16.74-9.394 25.168-13.96.966-.527 1.903-.468 2.81.205 3.336 2.546 6.994 4.42 11.092 5.356 1.024.234 1.61.878 1.99 1.873 1.112 3.014 2.282 6.029 3.424 9.043.146.351.175.79.673 1.17v-.058Z" fill="#8BD25C" fill-opacity=".45"/><path d="M25.713 132.049c1.64 0 3.278-.059 4.917 0 .937.058 1.288-.351 1.405-1.2a26.29 26.29 0 0 0-.059-7.873c-.117-.907-.556-1.053-1.375-1.053-3.19.029-6.38 0-9.57 0-.556 0-1.258.234-1.58-.469-.293-.643.234-1.112.556-1.58 5.443-8.253 17.588-7.668 22.241 1.083.498.936.996 1.258 2.05 1.258 9.189-.058 18.407-.029 27.597 0 1.024 0 1.55-.263 2.078-1.229 2.34-4.331 6.028-6.76 10.974-6.936 4.888-.176 8.692 1.932 11.414 6 .263.409.702.79.439 1.346-.293.614-.907.527-1.434.527-3.249 0-6.468.029-9.716 0-.908 0-1.288.292-1.405 1.17-.351 2.634-.38 5.268 0 7.873.117.849.497 1.083 1.346 1.083 3.22-.059 6.468 0 9.716 0 .527 0 1.142-.176 1.493.439.351.614-.147 1.053-.41 1.492-5.21 8.341-17.793 7.902-22.359-.848-.556-1.054-1.141-1.376-2.283-1.347-9.101.059-18.232.059-27.334 0-1.083 0-1.639.264-2.166 1.288-4.506 8.721-16.856 9.336-22.27 1.112-.293-.468-.85-.907-.527-1.58.35-.673 1.024-.468 1.58-.468h4.653v-.059l.03-.029Z" fill="#8BD25C" fill-opacity=".45"/></svg>