<svg width="190" height="140" fill="none" xmlns="http://www.w3.org/2000/svg"><path d="M75.21 95.93c6.3-1.138 11.032-5.813 11.032-11.394 0-7.195-3.945-9.28-11.032-10.944V95.93Z" fill="#8BD25C" fill-opacity=".45"/><path d="M105.008 87.492h19.828V50.15c-8.383-20.861-29.45-34.84-52.595-34.84-31.12 0-56.436 24.534-56.436 54.693 0 30.155 25.316 54.693 56.436 54.693 16.387 0 31.728-6.784 42.475-18.693l-11.975-13.767a2.81 2.81 0 0 1-.423-3.075c.482-1.016 1.533-1.668 2.69-1.668Zm-12.82-2.956c0 8.725-7.382 15.974-16.978 17.231v6.255c0 1.592-1.329 2.885-2.973 2.885-1.64 0-2.972-1.289-2.972-2.885v-6.255c-9.597-1.257-16.978-8.506-16.978-17.231 0-1.592 1.329-2.885 2.973-2.885s2.972 1.29 2.972 2.885c0 5.582 4.735 10.256 11.033 11.394V72.328c-8.094-1.75-16.978-4.656-16.978-16.867 0-8.726 7.381-15.975 16.978-17.232v-6.255c0-1.591 1.328-2.884 2.972-2.884 1.64 0 2.973 1.289 2.973 2.884v6.255c9.596 1.257 16.977 8.506 16.977 17.232 0 1.591-1.328 2.884-2.972 2.884s-2.973-1.29-2.973-2.884c0-5.582-4.735-10.256-11.032-11.394v23.601c8.093 1.747 16.977 4.656 16.977 16.868Z" fill="#8BD25C" fill-opacity=".45"/><path d="M72.24 130.461c-34.396 0-62.376-27.12-62.376-60.46 0-33.338 27.98-60.454 62.377-60.454 12.914 0 25.301 3.791 35.833 10.965 6.746 4.598 12.409 10.36 16.766 16.98v-15.45C111.217 8.023 92.117 0 72.244 0 32.409-.004 0 31.402 0 70.005 0 108.602 32.408 140 72.24 140c20.025 0 39.099-8.059 52.744-22.194l-6.394-7.346c-11.841 12.755-28.54 20.001-46.35 20.001Z" fill="#8BD25C" fill-opacity=".45"/><path d="M58.232 55.46c0 7.196 3.945 9.28 11.033 10.944V44.067c-6.298 1.138-11.033 5.812-11.033 11.394Zm115.355 37.801c-1.641 0-2.973-1.289-2.973-2.884V23.782h-39.837v66.595c0 1.592-1.328 2.884-2.972 2.884h-16.403l39.292 45.158L190 93.261h-16.413Z" fill="#8BD25C" fill-opacity=".45"/></svg>