<svg width="30" height="30" fill="none" xmlns="http://www.w3.org/2000/svg"><path fill-rule="evenodd" clip-rule="evenodd" d="m24.566 23.3-4.004-2.327a1.63 1.63 0 0 0-2.23.601l-.159.276a2.62 2.62 0 0 1-1.8 1.306 2.615 2.615 0 0 1-2.164-.49 34.791 34.791 0 0 1-3.704-3.247 34.865 34.865 0 0 1-3.224-3.73 2.664 2.664 0 0 1-.486-2.18c.16-.79.603-1.409 1.297-1.812l.274-.16c.38-.22.645-.573.759-.999a1.64 1.64 0 0 0-.161-1.247L6.652 5.26c-.41-.716-1.257-1-2.02-.705l-.05.019c-.785.303-2.95 1.1-3.53 1.685C-.67 7.991.066 11.126.833 13.12c1.344 3.493 3.894 6.856 6.507 9.487 2.612 2.63 5.95 5.199 9.418 6.553 1.204.47 2.558.84 3.857.84 1.087 0 2.17-.265 2.957-1.059.555-.558 1.377-2.806 1.678-3.57l.02-.05a1.635 1.635 0 0 0-.705-2.02ZM23.332 7.483a.959.959 0 0 1 .631.903v4.591h.178c.526 0 .952.43.952.96s-.426.959-.952.959h-.178v1.062c0 .53-.426.96-.952.96a.955.955 0 0 1-.952-.96v-1.062h-3.584a.952.952 0 0 1-.861-.55.965.965 0 0 1 .125-1.018l4.536-5.552a.949.949 0 0 1 1.057-.293Zm-1.273 5.494h-1.566l1.566-1.916v1.916Zm-6.456-1.894c.175-.645.072-1.126-.307-1.428-.441-.352-1.176-.414-1.673-.141-.358.196-.509.527-.463 1.012a.956.956 0 0 1-.857 1.047.954.954 0 0 1-1.039-.863c-.12-1.26.407-2.31 1.448-2.882 1.172-.642 2.722-.51 3.766.323.99.788 1.341 2.042.963 3.438-.258.95-1.15 1.651-2.093 2.393-.403.316-.83.653-1.219 1.017h2.768c.526 0 .952.43.952.959 0 .53-.426.96-.952.96H12.19a.951.951 0 0 1-.807-.45.966.966 0 0 1-.05-.928c.648-1.345 1.865-2.302 2.842-3.07.596-.469 1.337-1.05 1.428-1.387ZM30 12.493c0 3.338-1.29 6.475-3.633 8.835a.948.948 0 0 1-1.347 0 .964.964 0 0 1 0-1.357 10.544 10.544 0 0 0 3.075-7.477c0-5.832-4.71-10.575-10.5-10.575-2.805 0-5.441 1.1-7.424 3.097a.948.948 0 0 1-1.347 0 .964.964 0 0 1 0-1.357A12.28 12.28 0 0 1 17.594 0C24.435 0 30 5.605 30 12.494Z" fill="#8BD25C"/></svg>