<svg width="70" height="80" fill="none" xmlns="http://www.w3.org/2000/svg"><path d="M33.87 1.303a2.26 2.26 0 0 1 2.26 0l31.74 18.325A2.26 2.26 0 0 1 69 21.585v36.65a2.26 2.26 0 0 1-1.13 1.957L36.13 78.518a2.26 2.26 0 0 1-2.26 0L2.13 60.192A2.26 2.26 0 0 1 1 58.236V21.585c0-.807.43-1.553 1.13-1.957L33.87 1.303Z" stroke="#8BD25C" stroke-width="2"/><path d="M33.37 3.695a3.26 3.26 0 0 1 3.26 0l28.917 16.696a3.26 3.26 0 0 1 1.63 2.823v33.392a3.26 3.26 0 0 1-1.63 2.822L36.63 76.124a3.26 3.26 0 0 1-3.259 0L4.452 59.428a3.26 3.26 0 0 1-1.63-2.822V23.214a3.26 3.26 0 0 1 1.63-2.823L33.37 3.695Z" fill="#8BD25C"/><path d="M45.86 52.673h-8.532c-.521 0-.547-.02-.547-.554 0-4.393 0-8.787.006-13.187 0-.352-.078-.495-.456-.567-1.839-.358-3.67-.756-5.508-1.147-2.451-.522-4.896-1.05-7.34-1.578-.254-.058-.391 0-.424.28a7.076 7.076 0 0 1-.117.64c-.02.084-.04.176-.15.195-.111.013-.144-.078-.183-.156-.313-.548-.632-1.089-.932-1.636a2.412 2.412 0 0 0-3.298-.94c-1.154.633-1.545 2.106-.867 3.312 1.134 2.027 2.294 4.035 3.442 6.056.104.189.202.385.326.567.632.971 1.557 1.252 2.653 1.134.651-.071 1.303-.052 1.949-.045.41 0 .775.208 1.153.332 1.46.495 2.94.926 4.368 1.493a2.97 2.97 0 0 1 1.838 3.194c-.183 1.284-1.056 2.281-2.418 2.581a4.546 4.546 0 0 1-.94.072c-3.734 0-7.463.013-11.198 0-.919 0-1.845-.033-2.731-.346-1.362-.488-2.21-1.466-2.712-2.796-.267-.71-.32-1.46-.423-2.197-.144-1.088-.176-2.183-.176-3.279 0-1.114.065-2.229.228-3.337.28-1.91.801-3.755 1.401-5.573.522-1.578 1.421-2.875 2.9-3.703 1.272-.71 2.602-.84 3.99-.378.144.046.235.157.333.254 1.805 1.708 3.891 2.112 6.225 1.324a1.35 1.35 0 0 1 .736-.046l7.92 1.682c.32.065.64.137.952.215 1.07.26 1.682 1.128 1.571 2.223-.033.28.124.273.306.273h15.267c.482 0 .482 0 .489.496v14.55c0 .39-.2.586-.6.586h-8.5v.006Zm-2.965-12.15c-.1.456-.374.684-.822.684h-.163c-1.277 0-2.561.007-3.839 0-.32 0-.47.078-.437.417.02.203.02.411 0 .62-.032.32.098.41.411.41 1.323-.013 2.647 0 3.97 0 .45 0 .489.04.489.437 0 .378-.052.417-.476.417h-3.905c-.163 0-.443-.098-.45.17-.006.306.287.195.457.195 1.323.007 2.646.007 3.97 0 .286 0 .417.098.41.398-.006.404-.052.463-.476.463h-4.002c-.267 0-.417.039-.358.358.026.163-.027.346-.027.515 0 1.956 0 3.905-.006 5.86 0 .274.104.359.365.359h8.142c.254 0 .351-.091.345-.346-.013-.671 0-1.342 0-2.02 0-.613.013-.626.613-.626h6.61c.234 0 .397-.026.397-.326-.006-1.78 0-3.56 0-5.339 0-.24-.098-.32-.332-.32-.535.007-1.063.014-1.597 0-.268-.006-.385.086-.45.346-.117.47-.326.893-.698 1.226-.795.697-1.714.717-2.666.463a1.728 1.728 0 0 0-.795-.013c-.28.052-.32.156-.222.41.274.743.203 1.447-.273 2.093-.092.124-.183.254-.365.104-.15-.124-.3-.235-.137-.45.39-.521.358-1.088.156-1.675-.091-.267-.235-.398-.528-.437-.71-.097-1.245-.476-1.584-1.114-.39-.737-.437-1.532-.417-2.34.033-1.239.691-2.119 1.87-2.484.066-.02.125-.04.19-.059.156-.039.241-.137.234-.306v-.424c.007-.202-.084-.293-.293-.293h-3.064c-.234 0-.3.11-.293.32.007.358.013.716 0 1.075-.013.241.072.41.248.567.762.684 1.03 1.551.913 2.555-.06.509-.124 1.01-.176 1.519-.02.215-.079.352-.327.339-.254-.013-.3-.176-.28-.378.052-.476.105-.945.17-1.421.091-.691 0-1.337-.483-1.943l-.02-.006Zm7.32 2.327h-3.05c-.685 0-.678 0-.685-.672 0-.228.046-.462-.065-.756-.176.437-.144.815-.085 1.187.091.612 1.03 1.42 1.65 1.453.051 0 .11 0 .162-.013a6.14 6.14 0 0 0 2.08-1.206l-.007.007Zm-5.397-1.493c-.065.737.006 1.447.313 2.125.17.378.469.613.847.756.072.026.15.059.209-.013.045-.058 0-.123-.026-.182-.111-.196-.163-.417-.333-.587-.58-.58-1.036-1.225-1.017-2.099h.007Zm4.237 2.992c1.056.163 1.962-.423 2.007-1.277-.619.502-1.258.906-2.007 1.277Zm-3.383-2.157c.039-.287 0-.515.071-.737.105-.32.274-.587.587-.743.215-.111.176-.313.124-.489-.033-.11-.144-.052-.222-.02-.75.32-1.03 1.239-.567 1.982l.007.006Z" fill="#fff"/><path d="M31.057 27.232c.079 2.848-2.353 5.443-5.43 5.45-2.953 0-5.45-2.484-5.462-5.418-.013-3.044 2.588-5.54 5.573-5.495 2.653.04 5.417 2.412 5.32 5.463Zm-11.485 6.883c.782.033 1.382.424 1.78 1.128.827 1.447 1.655 2.9 2.476 4.354.17.294.34.58.502.88.085.157.196.222.365.209 1.134-.098 2.275-.046 3.41-.163.742-.078 1.492-.02 2.242-.078a41.5 41.5 0 0 1 2.698-.085c.998 0 1.76.626 1.982 1.597.235 1.03-.626 2.203-1.675 2.314-.965.104-1.93.072-2.894.117a410.65 410.65 0 0 1-6.956.307c-.834.032-1.499-.32-1.923-1.056-1.238-2.165-2.47-4.335-3.709-6.5-.847-1.486.287-2.991 1.689-3.03l.013.006Zm9.712 22.535c.124.026.255.045.378.071.183.04.333.124.346.333.013.195-.13.3-.287.345-.293.078-.587.163-.887.202-1.14.13-2.287.241-3.428.365-.248.026-.359-.045-.391-.3-.033-.26.136-.293.313-.313.606-.065 1.205-.11 1.812-.175.163-.02.32-.06.515-.098-.137-.17-.34-.28-.248-.509.091-.228.306-.3.515-.352a8.89 8.89 0 0 1 1.375-.24c.971-.086 1.936-.203 2.92-.196a8.998 8.998 0 0 0 2.85-.437.957.957 0 0 0 .319-.15c.951-.684 2.053-.88 3.18-1.03.861-.11 1.728-.143 2.595-.085 1.043.072 2.066.19 3.064.535.612.208 1.277.267 1.877.528.567.247 1.102.521 1.35 1.147a.266.266 0 0 0 .162.15 6.22 6.22 0 0 0 2.393.371c1.062-.052 2.125-.071 3.187.007 1.075.078 2.131.26 3.181.489.41.091.47.17.404.47-.046.195-.15.247-.332.195-.678-.19-1.376-.294-2.073-.391-1.356-.196-2.718-.268-4.087-.157-.9.072-1.78-.045-2.634-.306-.221-.072-.371-.04-.547.13-.528.522-1.226.724-1.923.9-1.838.456-3.696.45-5.554.15-1.115-.176-2.19-.522-3.26-.867-.52-.17-1.094-.385-1.303-.946-.163-.45-.371-.397-.73-.312a9.949 9.949 0 0 1-2.158.234c-.964 0-1.922.085-2.894.248v-.006Zm11.03.769c.358 0 .697.026 1.036 0 .873-.072 1.72-.268 2.464-.75.437-.28.443-.652 0-.926-.672-.417-1.402-.69-2.216-.625-.704.052-1.402.09-2.1.234-.697.137-1.375.326-1.974.704-.398.248-.411.574-.04.86.229.183.49.333.79.372.69.085 1.375.196 2.046.13h-.007Zm-1.591-2.549c-1.063.065-2.008.515-2.966.9-.267.11-.287.397-.052.612.189.176.424.3.665.404.163.072.254.04.215-.163-.046-.24.039-.45.176-.638.228-.32.541-.528.886-.698.346-.17.718-.274 1.076-.41v-.007Zm4.504 2.927c.56 0 1.115-.085 1.663-.215.567-.137 1.134-.28 1.623-.626.156-.11.221-.209 0-.32a4.32 4.32 0 0 1-.528-.312c-.13-.085-.183-.046-.242.078-.189.384-.515.632-.886.821-.515.26-1.063.424-1.617.58l-.013-.006Zm1.18-2.399c.293.326.456.678.313 1.173.306-.163.482-.326.43-.573-.078-.365-.423-.476-.743-.6Zm4.485-18.878h-1.89c-.385 0-.444-.065-.45-.462-.009-.478.228-.717.71-.717 1.193 0 2.386.006 3.579 0 .3 0 .456.078.43.404 0 .032.007.065.013.098.059.625 0 .69-.632.69h-1.76v-.013Zm4.224 18.76c-.144 0-.241-.032-.274-.156-.065-.248-.235-.241-.43-.202a65.45 65.45 0 0 1-1.565.287c-.189.032-.352.039-.39-.209-.033-.221.064-.32.273-.352.548-.09 1.089-.202 1.63-.293.182-.033.313-.072.267-.306-.046-.235.137-.255.3-.287.176-.033.267.052.3.215.065.339.123.684.176 1.023.032.235-.137.261-.28.28h-.007Zm3.304-3.174c.027-.248.066-.495.079-.743.013-.189.104-.274.287-.26.17.006.306.051.273.267-.026.195.079.26.242.254.554-.026 1.095.124 1.649.137.202 0 .41.013.39.306-.019.287-.214.313-.442.287-.515-.059-1.03-.111-1.545-.17-.163-.02-.346-.052-.372.19-.026.24-.189.26-.378.234-.235-.032-.215-.195-.189-.365 0-.046.007-.085.013-.13h-.006v-.007ZM42.367 36.253c.013.228-.13.267-.267.307-.144.039-.268.006-.294-.163-.032-.215-.143-.222-.32-.176-.553.137-1.114.26-1.674.397-.196.046-.32 0-.359-.202-.04-.189.02-.306.228-.352.483-.11.971-.221 1.454-.345.235-.059.515-.066.45-.45-.033-.176.15-.176.273-.209.124-.032.222 0 .255.13.097.366.182.737.267 1.07l-.013-.007Zm1.779-1.382v.815c0 .17.033.3.242.313.234.013.28.163.26.358-.02.203-.163.235-.326.235h-.88c-.182 0-.319-.059-.339-.267-.02-.196.06-.313.261-.326.209-.013.235-.15.235-.32v-1.59c0-.189 0-.378.274-.378.28 0 .267.196.267.385v.782l.006-.007ZM41.343 46.69h2.83c.443 0 .488.045.488.482v3.676c0 .372-.091.489-.43.443-.554-.071-1.102.053-1.656.007-1.082-.085-2.164.065-3.246-.033-.313-.026-.626.026-.938.026-.255 0-.372-.123-.372-.384v-3.84c0-.3.163-.39.437-.384h2.894l-.007.006Zm11.121 1.166c-.391 0-.815-.41-.808-.782.013-.391.39-.763.782-.776.398-.013.808.391.802.782 0 .385-.398.77-.776.776Zm-1.969-1.558c.385-.006.79.372.796.756.013.391-.391.796-.796.796-.384 0-.769-.392-.769-.776 0-.404.359-.77.77-.776Z" fill="#fff"/></svg>