<svg width="70" height="80" fill="none" xmlns="http://www.w3.org/2000/svg"><path d="M33.871 1.303a2.253 2.253 0 0 1 2.258 0l31.74 18.367A2.268 2.268 0 0 1 69 21.633v36.734a2.27 2.27 0 0 1-1.13 1.963L36.129 78.697a2.253 2.253 0 0 1-2.258 0L2.131 60.33A2.268 2.268 0 0 1 1 58.367V21.633c0-.81.432-1.559 1.13-1.963L33.871 1.303Z" stroke="#8BD25C" stroke-width="2"/><path d="M33.37 3.704a3.253 3.253 0 0 1 3.26 0l28.917 16.734a3.268 3.268 0 0 1 1.63 2.829v33.466a3.268 3.268 0 0 1-1.63 2.83L36.63 76.295a3.253 3.253 0 0 1-3.259 0L4.452 59.562a3.268 3.268 0 0 1-1.63-2.828V23.267a3.27 3.27 0 0 1 1.63-2.83L33.37 3.705Z" fill="#8BD25C"/><path d="M34.936 58.227c-5.075 0-10.15-.005-15.226.01-.383.002-.45-.112-.435-.464.116-2.642.18-5.286.33-7.925.094-1.674.48-3.293 1.307-4.774.933-1.671 2.352-2.724 4.133-3.33 1.563-.532 3.117-1.088 4.674-1.635.164-.057.304-.12.422.096.772 1.416 2.022 2.158 3.544 2.453 1.772.344 3.43.048 4.902-1.057a3.929 3.929 0 0 0 1.138-1.335c.106-.201.212-.25.424-.173 1.634.581 3.27 1.157 4.908 1.73 2.526.885 4.017 2.716 4.755 5.253.51 1.747.552 3.546.614 5.344.063 1.797.111 3.596.186 5.394.014.34-.083.423-.414.422-5.087-.01-10.174-.007-15.262-.007v-.002Zm.035-.936c3.004 0 6.007-.004 9.011.006.278 0 .372-.067.367-.36-.018-.966 0-1.932-.01-2.898-.006-.59.04-1.18-.049-1.77-.163-1.098-.306-2.2-.457-3.298-.308-2.222-.619-4.445-.916-6.668-.03-.23-.13-.327-.335-.396a41.517 41.517 0 0 1-1.963-.69c-.306-.118-.376-.066-.374.267.011 2.812 0 5.625.014 8.438.002.325-.09.4-.401.399-3.267-.012-6.535-.012-9.801 0-.313.001-.406-.078-.404-.401.014-2.233.008-4.467.008-6.7 0-.616-.005-1.231.002-1.847.003-.22-.052-.273-.27-.189-.48.185-.96.391-1.459.5-.702.152-1.093.495-1.039 1.26.012.165-.046.334-.07.5-.302 2.188-.611 4.373-.9 6.561-.125.944-.333 1.88-.35 2.835-.022 1.352.005 2.704-.012 4.056-.005.319.078.404.397.403 3.003-.013 6.007-.008 9.01-.008Z" fill="#fff"/><path d="M35.028 22.067c1.676.06 3.339.39 4.798 1.407 1.176.82 1.884 1.938 1.968 3.406.06 1.058.23 2.115.048 3.177-.022.128-.01.244.115.314.27.153.293.402.293.682 0 1.438-.251 2.831-.72 4.186-.041.118-.079.244-.196.29-.35.133-.428.445-.54.752-.711 1.943-1.861 3.549-3.57 4.73-.48.33-1.007.482-1.577.52-.695.048-1.387.043-2.073-.098-.484-.1-.88-.384-1.255-.676-1.578-1.23-2.672-2.81-3.294-4.72-.044-.137-.064-.295-.22-.355-.332-.127-.427-.413-.526-.72-.422-1.32-.659-2.666-.612-4.058.005-.14-.041-.311.111-.395.302-.165.274-.404.246-.702a12.431 12.431 0 0 1 .217-3.745c.333-1.543 1.422-2.497 2.791-3.145 1.244-.589 2.568-.823 3.996-.85Zm5.976 10.095c-.114.106-.148.134-.178.166-.585.633-1.278.92-2.132.66-.213-.064-.255.04-.309.218-.133.439-.646.653-1.085.474-.43-.175-.591-.575-.363-.993.14-.258-.038-.222-.171-.246a9.911 9.911 0 0 0-3.533-.02c-.242.041-.443.05-.215.366.094.13.08.3.017.453-.141.341-.406.493-.763.492-.371 0-.669-.187-.761-.538-.06-.23-.15-.251-.35-.194-.78.224-1.433-.017-1.997-.574-.066-.065-.1-.206-.262-.147.061.773.254 1.518.472 2.257.037.126.135.199.248.245.273.11.378.33.45.602a8.128 8.128 0 0 0 1.059 2.362c.17.263.267.233.417-.01.176-.287.38-.556.573-.832a1.486 1.486 0 0 1 1.204-.674 27.579 27.579 0 0 1 3.263 0 1.47 1.47 0 0 1 1.178.655c.208.295.422.587.615.892.146.232.238.203.374-.01.445-.692.809-1.423 1.024-2.22.094-.347.187-.672.572-.808.067-.024.133-.113.157-.186.24-.745.428-1.5.495-2.391Zm-10.892-4.007c0 .29.024.581-.007.868-.038.362.11.391.411.329a20.243 20.243 0 0 1 3.236-.396c1.92-.087 3.825.02 5.71.41.259.053.342-.012.325-.284-.035-.53-.018-1.063-.063-1.591-.093-1.096-.228-2.185-.823-3.15a1.115 1.115 0 0 0-.56-.477c-1.926-.767-3.878-.778-5.88-.328-1.114.25-1.704.902-1.97 1.972-.217.873-.31 1.755-.379 2.648Zm4.829 1.475c-1.763.02-3.51.187-5.235.573-.538.12-.663.425-.377.915.51.868 1.046 1.04 1.906.727 2.5-.905 5.017-.876 7.521.024.764.275 1.285.107 1.712-.585.12-.194.215-.404.333-.599.133-.22.106-.319-.17-.385-1.871-.451-3.77-.647-5.69-.67Zm5-4.64c.425 1.418.431 2.874.461 4.328.002.047-.002.1.017.142.093.205.303.19.463.192.145.003.084-.17.078-.265-.046-.89-.088-1.78-.155-2.667-.052-.684-.36-1.255-.864-1.73Zm-9.988.003a2.233 2.233 0 0 0-.703 1.051c-.345 1.136-.181 2.322-.316 3.479-.015.124.046.163.177.136.248-.051.382-.142.389-.444.02-.818.027-1.638.126-2.453.072-.595.203-1.176.327-1.769Zm3.336 12.754c.758.934 2.972.729 3.258 0h-3.258Zm1.823 19.019c-1.651 0-3.303-.006-4.954.006-.276.002-.372-.066-.366-.361.015-.795 0-.795.771-.795 1.7 0 3.398-.01 5.098.009.323.004.41-.13.508-.403.172-.476.07-.876-.157-1.3-.409-.77-.216-1.838.403-2.466.194-.197.38-.403.577-.596.105-.102.194-.281.385-.169.2.118.053.288.024.421-.095.435-.2.87-.335 1.294-.095.299 0 .423.283.485.35.077.696.171 1.04.274.293.087.444.003.509-.31a20.4 20.4 0 0 1 .336-1.331c.032-.113.012-.293.202-.292.163 0 .21.13.246.265.11.407.22.814.338 1.219.056.192-.055.352-.073.53-.076.76-.425 1.326-1.117 1.673-.162.082-.33.188-.402.393-.075.214-.052.313.203.306.49-.012.981.005 1.472-.007.218-.005.286.072.294.29.03.865.037.865-.832.865h-4.453Z" fill="#fff"/><path d="M34.964 35.927c-.316.028-.607-.043-.895-.12-.16-.043-.284-.148-.24-.341.04-.177.179-.21.336-.185a5.19 5.19 0 0 0 1.566 0c.156-.023.296.01.339.184.048.196-.083.3-.24.342-.286.077-.577.15-.866.12Zm-.133-11.437c.743.005 1.356.08 1.94.328.11.047.223.089.324.151.375.231.743.492.743.988s-.346.794-.744.982c-1.436.68-2.883.674-4.323-.004a1.482 1.482 0 0 1-.27-.176c-.612-.476-.614-1.127-.002-1.6.5-.384 1.088-.54 1.697-.625.248-.034.5-.036.636-.044h-.001Z" fill="#fff"/></svg>