<svg width="70" height="80" fill="none" xmlns="http://www.w3.org/2000/svg"><path d="M33.87 1.303a2.26 2.26 0 0 1 2.26 0l31.74 18.325A2.26 2.26 0 0 1 69 21.585v36.65a2.26 2.26 0 0 1-1.13 1.957L36.13 78.518a2.26 2.26 0 0 1-2.26 0L2.13 60.192A2.26 2.26 0 0 1 1 58.236V21.585c0-.807.43-1.553 1.13-1.957L33.87 1.303Z" stroke="#8BD25C" stroke-width="2"/><path d="M33.37 3.696a3.26 3.26 0 0 1 3.26 0l28.917 16.696a3.26 3.26 0 0 1 1.63 2.823v33.392a3.26 3.26 0 0 1-1.63 2.822L36.63 76.125a3.26 3.26 0 0 1-3.259 0L4.452 59.43a3.26 3.26 0 0 1-1.63-2.822V23.215a3.26 3.26 0 0 1 1.63-2.823L33.37 3.696Z" fill="#8BD25C"/><path d="M33.515 47.275c-.05-.197-.083-.4-.083-.612 0-.85.422-1.638 1.129-2.11l.238-.16a5.742 5.742 0 0 1 1.81-.798l-4.262-3.96a2.626 2.626 0 0 1-.838-1.92c0-.953.518-1.782 1.282-2.24v-1.663h3.845v2.565h-.026l1.843 1.69c.032-.043.07-.078.105-.118V26.787H24.461v18.487l.376-1.504a2.139 2.139 0 0 1 2.078-1.624c1.112 0 2.05.87 2.136 1.98l.242 3.149h4.222Zm-.724-18.59h3.845v2.563H32.79v-2.564Zm-6.408 0h3.845v2.563h-3.845v-2.564Zm0 5.128h3.845v2.564h-3.845v-2.565Zm0 7.692v-2.564h3.845v2.564h-3.845Z" fill="#fff"/><path d="M27.773 44.223a.86.86 0 0 0-1.694-.142l-.48 1.922a20.136 20.136 0 0 1-1.518 4.107 1.82 1.82 0 0 1-1.636 1.01 1.831 1.831 0 0 1-1.83-1.829v-8.803l-.862.863a5.772 5.772 0 0 0-1.7 4.108c0 .318.026.64.079.955l.997 5.982c.122.738.326 1.467.605 2.165l.675 1.688h6.821l.327-.817a10.406 10.406 0 0 0 .718-4.687l-.502-6.522Zm1.173-21.283h5.127c.353 0 .64-.288.64-.64v-.642h-6.408v.641c0 .354.288.641.641.641Z" fill="#fff"/><path d="M22.445 49.839a.545.545 0 0 0 .49-.303c.086-.173.163-.35.244-.526V25.506h15.413a2.912 2.912 0 0 1 2.425-2.543 1.893 1.893 0 0 0-1.792-1.304h-3.23v.641c0 1.06-.862 1.923-1.922 1.923h-5.127a1.925 1.925 0 0 1-1.922-1.923v-.64H23.82c-1.06 0-1.922.862-1.922 1.922v25.71c0 .302.246.548.547.548Zm-1.829 7.692h6.408v1.282h-6.408v-1.282ZM39.84 30.598v6.526c.027-.008.051-.02.078-.027a2.65 2.65 0 0 1 1.203-1.618v-3.831a2.908 2.908 0 0 1-1.281-1.05ZM38.522 50.09a3.85 3.85 0 0 0-2.46-.892h-.096c-.64 0-1.22-.247-1.667-.641h-4.907l.148 1.923h2.61a.64.64 0 0 1 .641.64c0 1.063-.86 1.924-1.922 1.924H29.48a11.667 11.667 0 0 1-.406 1.923h10.125c1.06 0 1.922-.863 1.922-1.923V51.89a6.405 6.405 0 0 1-1.605-.972l-.994-.829Zm-.605 1.672a1.281 1.281 0 1 1-2.563 0v-.641c0-.354.287-.641.641-.641h1.282a.64.64 0 0 1 .64.64v.642ZM39.84 25.84c0 .133.016.267.05.398l.78 3.126a1.64 1.64 0 0 0 1.593 1.243h2.703v1.603c0 .245.316.405.514.256l2.477-1.859h4.84a1.64 1.64 0 0 0 1.592-1.243l.781-3.127a1.644 1.644 0 0 0-1.593-2.04H41.482c-.906 0-1.642.736-1.642 1.642Zm12.816 3.485h-1.282v-1.282h1.282v1.282ZM42.403 25.48h10.253v1.282H42.403V25.48Zm0 2.564h7.69v1.282h-7.69v-1.282Z" fill="#fff"/><path d="M52.015 45.351V43.63a5.13 5.13 0 0 0-1.501-3.627l-3.868-3.87a1.36 1.36 0 1 0-1.923 1.924l1.525 1.525-2.806-2.807a1.36 1.36 0 1 0-1.923 1.923 1.36 1.36 0 0 0-2.32.962v.232c0 .381.16.744.441 1.002l-4.543-4.165a1.339 1.339 0 0 0-.904-.352h-.063a1.339 1.339 0 0 0-.91 2.32l7.408 6.883a4.466 4.466 0 0 0-2.64-.87 4.47 4.47 0 0 0-2.478.751l-.239.16a1.253 1.253 0 0 0 .695 2.295h.095c1.2 0 2.36.42 3.282 1.188l.993.828a5.125 5.125 0 0 0 3.282 1.189h2.63l3.845 3.846 5.767-5.77-3.845-3.846Z" fill="#fff"/></svg>