<svg width="70" height="80" fill="none" xmlns="http://www.w3.org/2000/svg"><path d="M33.87 1.303a2.26 2.26 0 0 1 2.26 0l31.74 18.325A2.26 2.26 0 0 1 69 21.585v36.65a2.26 2.26 0 0 1-1.13 1.957L36.13 78.518a2.26 2.26 0 0 1-2.26 0L2.13 60.192A2.26 2.26 0 0 1 1 58.236V21.585c0-.807.43-1.553 1.13-1.957L33.87 1.303Z" stroke="#8BD25C" stroke-width="2"/><path d="M33.37 3.695a3.26 3.26 0 0 1 3.26 0l28.917 16.696a3.26 3.26 0 0 1 1.63 2.823v33.392a3.26 3.26 0 0 1-1.63 2.822L36.63 76.124a3.26 3.26 0 0 1-3.259 0L4.452 59.428a3.26 3.26 0 0 1-1.63-2.822V23.214a3.26 3.26 0 0 1 1.63-2.823L33.37 3.695Z" fill="#8BD25C"/><path d="M48.839 26.3c.944 0 1.824.003 2.703 0 1.648-.008 3.297-.019 4.945-.03.555-.004.883-.28.906-.747.024-.48-.304-.826-.849-.87-.243-.02-.49-.006-.735-.006-2.941-.005-5.883-.007-8.823-.016-.561-.002-1.023.067-1.36.644-.228.391-.77.238-1.175.2-.34-.033-.39-.337-.401-.633-.063-1.547.152-1.779 1.675-1.78h11.908c1.076 0 1.357.27 1.358 1.357.004 4.3.002 8.602.002 12.903v17.596c0 .163 0 .327-.016.489-.068.645-.27.852-.912.93-.178.02-.358.02-.537.02-3.987.002-7.974.003-11.96.002-.18 0-.36-.002-.539-.02-.642-.063-.942-.348-.971-.993-.028-.585.004-1.172-.001-1.76-.003-.34.23-.34.466-.346.864-.026 1.73.042 2.593-.038 1.215-.113 2.15-1.046 2.238-2.258.023-.325.038-.65.038-.976.002-4.937.003-9.874 0-14.81 0-.667-.035-1.335-.03-2.002.006-.622.099-.698.715-.698H56.4c.374 0 .714-.067.904-.447.234-.467.056-.938-.438-1.097-.297-.096-.608-.11-.92-.11-1.944 0-3.889-.002-5.833-.011-.685-.003-.768-.109-.75-.867.011-.444.195-.604.767-.576 2.053.096 4.106.018 6.16.035.709.006 1.102-.288 1.108-.813.005-.415-.206-.686-.594-.789a2.868 2.868 0 0 0-.728-.07 741.91 741.91 0 0 0-6.078.004c-.388.002-.669-.055-.722-.513-.036-.31-.283-.538-.437-.903V26.3Zm2.64 21.726c.673.028 1.267-.519 1.286-1.183.017-.616-.553-1.2-1.203-1.234-.657-.034-1.213.488-1.242 1.167a1.211 1.211 0 0 0 1.16 1.25Zm-.373 2.403h.01c0 .194-.018.39.005.583.026.225.129.407.397.41.261.004.381-.158.414-.39a3.79 3.79 0 0 0 0-1.212c-.04-.24-.171-.39-.421-.383-.285.008-.388.205-.402.456-.011.178-.002.357-.002.536h-.001Z" fill="#fff"/><path d="M29.28 52.122H12.058c-1.337 0-1.829-.489-1.829-1.822V28.4c0-1.361.553-1.867 1.915-1.857 2.559.02 5.117.003 7.675.006 2.722.003 5.445.015 8.167.017 4.907.003 9.813.006 14.72-.002 1.417-.002 2.835-.054 4.251.033.845.052 1.25.507 1.305 1.351.013.195.013.392.013.587V50.19c0 .196.002.391-.009.587-.046.832-.525 1.332-1.368 1.34-2.152.02-4.305.012-6.458.012H29.283v-.006h-.002Zm-.002-23.142H13.397c-.634 0-.727.084-.727.636l-.006 19.354c0 .623.095.72.694.72 10.13-.003 20.26-.005 30.39-.005.505 0 1.01.033 1.515.035.423 0 .574-.206.573-.646-.014-6.419-.011-12.838-.014-19.257 0-.824-.017-.836-.86-.837H29.279Zm-.003 22.554c.346-.01.673-.338.655-.657-.018-.321-.375-.668-.692-.628-.358.046-.598.241-.596.64.002.384.269.657.633.645Z" fill="#fff"/><path d="M60.411 39.691c0 5.15.002 10.298-.002 15.448 0 1.288-.583 2.173-1.634 2.5-.343.106-.7.169-1.062.134-.328-.032-.542.094-.602.425-.095.528-.49.603-.919.6-.438-.002-.87-.049-.976-.598-.06-.311-.248-.43-.554-.428-2.108.004-4.216.004-6.323 0-.291 0-.439.106-.492.412-.092.531-.511.611-.964.617-.442.006-.854-.089-.94-.583-.068-.396-.281-.468-.613-.446-.852.055-1.574-.209-2.126-.876-.332-.401-.528-.851-.523-1.383.007-.636 0-1.271-.009-1.907-.004-.248.047-.43.35-.376.248.045.63-.145.62.366-.012.537 0 1.075.008 1.612.014 1.075.514 1.574 1.603 1.58 2.68.01 5.36.016 8.04.02 1.307.002 2.614-.003 3.922-.005.163 0 .326 0 .49-.006 1.258-.051 1.735-.533 1.74-1.786.006-1.987.002-3.975.002-5.963-.003-8.131-.005-16.263-.006-24.394 0-.195.003-.392-.016-.585-.093-.893-.496-1.296-1.396-1.404a5.292 5.292 0 0 0-.635-.039c-3.938-.002-7.877-.002-11.814 0-.212 0-.425.013-.635.037-.833.091-1.285.588-1.302 1.425-.006.293.015.588-.008.88-.026.319-.15.552-.547.538-.404-.015-.418-.254-.406-.558.018-.472-.068-.949.041-1.412.282-1.196 1.193-1.877 2.515-1.877 2.624 0 5.248.006 7.872.011 1.663.003 3.326.009 4.99.012 1.368.003 2.31 1.152 2.314 2.464.013 4.236.003 8.473.002 12.71v2.835h-.005ZM29.287 58.783c-2.515 0-5.029.002-7.543-.004-.193 0-.46.098-.523-.208-.062-.296.03-.523.329-.678.85-.445 1.683-.92 2.532-1.366.323-.17.482-.385.47-.769-.026-.715-.013-1.432-.005-2.149.005-.525.177-.715.704-.716 2.66-.01 5.322-.01 7.983 0 .547.002.728.183.746.74.022.634.037 1.27 0 1.904-.03.529.179.842.643 1.076.755.38 1.487.804 2.23 1.209.173.093.347.185.444.367.175.326 0 .625-.369.625h-7.641v-.031ZM35 38.933a5.54 5.54 0 1 1-11.081 0 5.54 5.54 0 0 1 11.08 0Zm-2.75-2.098a.52.52 0 0 0-.748.015l-2.406 3.065-1.45-1.45a.52.52 0 0 0-.733.733l1.832 1.834a.52.52 0 0 0 .748-.014l2.764-3.456a.52.52 0 0 0-.006-.727h-.001Z" fill="#fff"/></svg>