<svg width="87" height="98" viewBox="0 0 87 98" fill="none" xmlns="http://www.w3.org/2000/svg">
<path d="M39.6657 1.0265C42.0384 -0.342166 44.9616 -0.342166 47.3343 1.0265L83.1657 21.6956C85.5384 23.0642 87 25.5936 87 28.3309V69.6691C87 72.4064 85.5384 74.9358 83.1657 76.3044L47.3343 96.9735C44.9616 98.3422 42.0384 98.3422 39.6657 96.9735L3.83431 76.3044C1.46163 74.9358 0 72.4064 0 69.6691V28.3309C0 25.5936 1.46163 23.0642 3.83431 21.6956L39.6657 1.0265Z" fill="#2DC36A"/>
<path d="M70.8392 47.8597L64.8134 31.6712C64.5751 31.0309 64.0996 30.5211 63.4748 30.2353C62.8496 29.9499 62.1526 29.9231 61.511 30.1604L57.4777 31.655C56.15 32.1472 55.4709 33.6256 55.9639 34.9505L56.0294 35.1263C55.0751 35.4877 54.0101 35.0929 52.3823 34.4126C49.9516 33.3972 46.655 32.0338 42.4699 34.6456C39.0732 32.5361 36.408 33.0565 34.0476 33.5254C32.8487 33.7632 31.7066 33.987 30.5273 33.8652C30.4941 33.556 30.4091 33.2512 30.2625 32.9654C29.9489 32.3546 29.4176 31.9027 28.7666 31.6931L24.6722 30.3752C24.0209 30.1657 23.3252 30.2227 22.7133 30.5348C22.1014 30.8477 21.6485 31.3779 21.4387 32.0275L16.1242 48.4625C15.6895 49.8076 16.4324 51.2549 17.7806 51.6887L21.8749 53.007C22.1332 53.0903 22.3984 53.1315 22.6626 53.1315C23.0647 53.1315 23.4644 53.0359 23.8336 52.8474C24.0616 52.7308 24.2588 52.5755 24.4383 52.4035C24.4635 52.5279 24.4973 52.6508 24.5279 52.7743L23.5028 54.6864C23.0633 55.507 22.9781 56.5019 23.2696 57.4158C23.5534 58.3057 24.152 59.0163 24.937 59.4077C25.6212 59.773 26.3749 59.8871 27.0905 59.7819C26.8861 60.4583 26.89 61.2002 27.1116 61.8954C27.3954 62.7853 27.9939 63.4962 28.779 63.8875C29.6001 64.3257 30.5453 64.4171 31.441 64.1468C31.7988 64.0384 32.1313 63.8777 32.4293 63.671C32.7167 64.5471 33.3107 65.2463 34.0868 65.6332C34.9077 66.0714 35.8529 66.1628 36.7486 65.8925C36.9474 65.8322 37.1387 65.7558 37.3201 65.6644C37.5894 66.7433 38.3582 67.7041 39.3165 68.2156C39.7743 68.4597 40.3133 68.617 40.8729 68.617C41.8897 68.617 42.974 68.097 43.7584 66.634L43.9114 66.3485C43.971 66.3796 44.0303 66.4108 44.0848 66.4392L44.4938 66.652C44.9949 66.9094 45.4846 67.0228 45.945 67.0228C47.0937 67.0228 48.0585 66.3164 48.5518 65.3783C48.8915 64.7328 49.011 63.9653 48.8463 63.2204C49.2607 63.2418 49.6797 63.1926 50.0893 63.0688C51.0092 62.7907 51.7641 62.1744 52.2148 61.3335C52.579 60.6542 52.7108 59.8916 52.601 59.1396C53.3703 59.4583 54.2212 59.4997 55.0327 59.2545C55.9605 58.974 56.7219 58.3521 57.1765 57.504C57.5481 56.8104 57.68 56.0309 57.5619 55.2638C58.8159 55.7625 60.0258 55.5344 60.8658 54.616C61.7175 53.6853 62.0038 52.2594 61.6853 50.9869C61.7512 50.9633 61.8179 50.9394 61.892 50.9128L61.9038 50.9087L61.9898 51.1393C62.374 52.1709 63.3575 52.8099 64.4006 52.8099C64.6972 52.8099 64.9984 52.7584 65.2921 52.6496L69.3252 51.1551C70.6531 50.6629 71.3323 49.1848 70.8392 47.8597ZM23.6938 50.8992C23.6055 51.172 23.4146 51.3951 23.156 51.5271C22.8969 51.6592 22.6041 51.6835 22.3312 51.5957L18.2367 50.2771C17.6686 50.0944 17.3555 49.4846 17.5387 48.9177L22.8534 32.4828C22.9414 32.2102 23.1323 31.9872 23.3909 31.8551C23.5472 31.7752 23.7163 31.7346 23.8859 31.7346C23.9968 31.7346 24.1075 31.7518 24.2155 31.7865L24.2157 31.7867L28.3102 33.1048C28.5834 33.1927 28.8069 33.3832 28.9392 33.6412C29.0716 33.8993 29.096 34.1914 29.008 34.4642L24.7651 47.586C24.7466 47.6218 24.7286 47.6585 24.7158 47.6981C24.6786 47.8128 24.6498 47.9289 24.617 48.0444L23.6938 50.8992ZM25.6199 58.0904C25.1786 57.8705 24.8469 57.4712 24.6861 56.9661C24.5155 56.4314 24.562 55.8554 24.8136 55.3861L25.9716 53.2257L25.9722 53.2249L26.5254 52.1929C27.0407 51.2321 28.2347 50.8608 29.2036 51.3487C29.8392 51.7921 30.7926 52.7351 30.0692 54.0844L28.3561 57.2804C27.8327 58.2528 26.6143 58.6217 25.6199 58.0904ZM32.1996 61.7573C31.948 62.2271 31.5253 62.5716 31.0095 62.7275C30.494 62.8835 29.9505 62.8309 29.4619 62.5704C29.0206 62.3504 28.6888 61.9509 28.528 61.4459C28.3574 60.9114 28.4042 60.3354 28.6558 59.8661L30.9858 55.5195C31.2374 55.0499 31.6601 54.7055 32.1757 54.5496C32.6915 54.3932 33.2344 54.446 33.7055 54.6973C34.1761 54.9483 34.5212 55.3701 34.6775 55.8848C34.8338 56.3992 34.7811 56.9415 34.5292 57.4113L34.1588 58.1026C34.1586 58.1034 34.158 58.104 34.1576 58.1048L32.6527 60.9122L32.6525 60.9126L32.1996 61.7573ZM36.3173 64.4731C35.8015 64.6291 35.2586 64.5764 34.7697 64.316C34.3284 64.096 33.9969 63.6967 33.8359 63.1918C33.6658 62.6577 33.7118 62.083 33.9624 61.6139L33.9636 61.6118L35.4685 58.8044L35.4688 58.8034L35.4696 58.8021C35.7215 58.3334 36.1437 57.99 36.6585 57.8342C37.1738 57.6775 37.7172 57.7305 38.188 57.982C39.1649 58.5034 39.5346 59.7209 39.0122 60.6957L37.5928 63.3438L37.5921 63.3452L37.5074 63.503C37.2559 63.9724 36.8329 64.3171 36.3173 64.4731ZM40.0176 66.9077C39.0433 66.3877 38.3461 65.0833 38.9037 64.0431L39.5707 62.7988L39.5714 62.7971C39.8315 62.3133 40.2939 61.9247 40.8404 61.731C41.386 61.5374 41.9338 61.5632 42.3832 61.8031C43.3626 62.3256 43.5206 62.7827 43.5539 63.0811C43.6047 63.5323 43.4133 64.1322 42.9341 65.0262C42.9338 65.0269 42.9335 65.0277 42.9332 65.0283L42.4476 65.9344C41.6249 67.4704 40.5723 67.2034 40.0176 66.9077ZM47.2357 64.6894C46.8852 65.3569 46.1119 65.8151 45.1741 65.3337L44.7759 65.1263C44.7101 65.0916 44.6486 65.0594 44.5916 65.0297C44.8926 64.3617 45.1119 63.6358 45.0312 62.9162C44.9401 62.1047 44.4888 61.4279 43.67 60.8571L46.5972 62.4256C47.5754 63.1109 47.572 64.05 47.2357 64.6894ZM59.768 53.6162C59.2894 54.1398 58.6325 54.1841 57.815 53.7475L55.6952 52.6162C55.6937 52.6154 55.6923 52.6147 55.6908 52.614C55.6691 52.6025 55.6464 52.5958 55.6242 52.5866L48.7886 48.8842C48.4286 48.6884 47.9769 48.8221 47.781 49.1823C47.5852 49.5422 47.7188 49.9922 48.0797 50.1877L55.0599 53.9685C55.5219 54.2388 55.865 54.664 56.0229 55.1833C56.1889 55.7298 56.133 56.3055 55.8654 56.8046C55.5981 57.3036 55.149 57.6696 54.6013 57.8352C54.0526 58.0006 53.476 57.9451 52.9764 57.6783L50.8688 56.5534C50.8322 56.5237 50.7926 56.4964 50.7495 56.4734L45.663 53.7597C45.3006 53.5661 44.8506 53.7032 44.6573 54.0641C44.4638 54.4252 44.6002 54.8745 44.9624 55.0676L49.921 57.7131C49.9578 57.7431 49.9976 57.7705 50.0411 57.7936C50.534 58.0566 50.8954 58.4979 51.0589 59.0367C51.2224 59.5753 51.1673 60.1426 50.9038 60.6341C50.6403 61.1259 50.1978 61.4863 49.658 61.6497C49.1186 61.8127 48.5498 61.7579 48.0571 61.495L46.9812 60.9209C46.9271 60.892 46.8708 60.8728 46.8139 60.8584L42.4713 58.5316C42.1096 58.3365 41.6589 58.473 41.4651 58.8341C41.2708 59.1948 41.4065 59.6446 41.7682 59.8381L42.6809 60.3271C42.0613 60.0993 41.3826 60.0562 40.7035 60.2249C40.8953 58.8208 40.2123 57.3801 38.8889 56.6737C38.0757 56.2397 37.1399 56.1453 36.2518 56.4072C36.2454 56.0886 36.1952 55.7685 36.0999 55.4544C35.8284 54.5605 35.2268 53.8271 34.4061 53.3891C33.5811 52.9492 32.6569 52.8734 31.8205 53.1061C31.8062 51.8462 31.0048 50.7985 30.0503 50.1298C30.0177 50.1047 29.9828 50.0822 29.9458 50.0625C28.5208 49.3023 26.7986 49.6309 25.7431 50.7558C25.726 49.9846 25.8317 49.2102 26.0465 48.4522L30.2885 35.3331C31.7224 35.4987 33.0492 35.2362 34.3371 34.98C36.4782 34.5551 38.5117 34.1512 41.1394 35.5803C40.5669 36.0351 39.9911 36.5541 39.4187 37.1311C38.9656 37.5884 38.4996 38.0449 38.045 38.4903C36.3877 40.1145 34.9564 41.5173 34.5471 42.5129C34.4482 42.7535 34.4828 43.0282 34.6383 43.2368C37.5965 47.2066 41.1815 45.8595 44.0609 44.7776C46.2197 43.9662 48.0841 43.2651 49.5693 44.4379C49.5974 44.4601 49.6269 44.4801 49.6578 44.498C50.3671 44.9081 51.3441 45.3895 52.4754 45.947C55.2105 47.295 58.9564 49.1411 59.9244 50.6092C60.5748 51.595 60.3685 52.9597 59.768 53.6162ZM61.0507 49.6388C59.7531 47.8829 56.0955 46.0768 53.134 44.6175C52.0507 44.0835 51.1117 43.621 50.4473 43.2403C48.3139 41.595 45.886 42.5071 43.5374 43.3897C40.7536 44.4352 38.3331 45.3444 36.122 42.7195C36.6414 41.9451 37.8816 40.7298 39.0866 39.5489C39.5463 39.0984 40.0171 38.6368 40.4754 38.1747C41.2695 37.3745 42.0641 36.7013 42.8388 36.1693C46.5829 33.6002 49.3584 34.7578 51.808 35.7807C52.9533 36.2592 54.1224 36.7475 55.2788 36.7475C55.7035 36.7475 56.126 36.6701 56.5456 36.5137L61.3862 49.5183C61.2734 49.5588 61.1592 49.5999 61.0507 49.6388ZM68.808 49.7646L64.7749 51.2592C64.2136 51.4658 63.5906 51.1809 63.383 50.6228L57.3574 34.4337C57.2575 34.1653 57.2691 33.8725 57.3901 33.6088C57.5112 33.3452 57.7261 33.1451 57.9952 33.0453L62.0282 31.5508C62.1494 31.5059 62.2755 31.4835 62.4015 31.4835C62.5559 31.4835 62.71 31.517 62.8554 31.5834C63.1193 31.7041 63.3199 31.9187 63.4198 32.1874L69.4456 48.376C69.6535 48.9345 69.3673 49.5572 68.808 49.7646Z" fill="white"/>
</svg>
