<svg width="87" height="98" viewBox="0 0 87 98" fill="none" xmlns="http://www.w3.org/2000/svg">
<path d="M39.6657 1.0265C42.0384 -0.342166 44.9616 -0.342166 47.3343 1.0265L83.1657 21.6956C85.5384 23.0642 87 25.5936 87 28.3309V69.6691C87 72.4064 85.5384 74.9358 83.1657 76.3044L47.3343 96.9735C44.9616 98.3422 42.0384 98.3422 39.6657 96.9735L3.83431 76.3044C1.46163 74.9358 0 72.4064 0 69.6691V28.3309C0 25.5936 1.46163 23.0642 3.83431 21.6956L39.6657 1.0265Z" fill="#9455E4"/>
<path d="M69.1667 66.9167H63.6667V26.5833C63.6652 25.3682 63.1819 24.2033 62.3226 23.344C61.4634 22.4848 60.2985 22.0015 59.0833 22C59.0833 22 20.5834 22 20.5834 22.0247C19.9819 22.0189 19.3854 22.1327 18.8283 22.3594C18.2712 22.5861 17.7647 22.9213 17.3382 23.3454C16.9118 23.7695 16.5739 24.2742 16.3442 24.8301C16.1144 25.3859 15.9975 25.9819 16 26.5833V65.0833C16 65.8127 16.2898 66.5121 16.8055 67.0279C17.3212 67.5436 18.0207 67.8333 18.75 67.8333H23.3334V72.4167C23.3611 73.6235 23.8529 74.7733 24.7065 75.6269C25.5601 76.4805 26.7098 76.9723 27.9167 77H66.4167C67.6318 76.9985 68.7967 76.5152 69.656 75.656C70.5152 74.7967 70.9985 73.6318 71 72.4167V68.75C71 68.2638 70.8068 67.7974 70.463 67.4536C70.1192 67.1098 69.6529 66.9167 69.1667 66.9167ZM23.3334 66H18.75C18.5069 66 18.2738 65.9034 18.1019 65.7315C17.93 65.5596 17.8334 65.3264 17.8334 65.0833V26.5833C17.8412 25.8564 18.1335 25.1615 18.6475 24.6475C19.1616 24.1335 19.8565 23.8412 20.5834 23.8333C21.3311 23.8618 22.0378 24.1822 22.5519 24.7258C23.0661 25.2694 23.3466 25.9929 23.3334 26.741V66ZM30.6667 68.75V72.259C30.682 72.9614 30.4381 73.6448 29.9816 74.1787C29.5251 74.7127 28.8879 75.0598 28.1917 75.1538C28.1129 75.1612 28.034 75.1657 27.9561 75.1667H27.9167C27.1895 75.1597 26.494 74.8678 25.9798 74.3536C25.4656 73.8393 25.1736 73.1439 25.1667 72.4167V26.741C25.1617 25.6892 24.8124 24.6679 24.1721 23.8333H59.0833C59.8127 23.8333 60.5122 24.1231 61.0279 24.6388C61.5436 25.1545 61.8333 25.854 61.8333 26.5833V66.9167H32.5C32.0138 66.9167 31.5475 67.1098 31.2037 67.4536C30.8599 67.7974 30.6667 68.2638 30.6667 68.75ZM69.1667 72.4167C69.1667 73.146 68.8769 73.8455 68.3612 74.3612C67.8455 74.8769 67.146 75.1667 66.4167 75.1667H31.5274C32.1586 74.3287 32.5 73.3081 32.5 72.259V68.75H69.1667V72.4167Z" fill="white"/>
<path d="M42.7025 44.7333C42.9514 44.8528 43.2239 44.9149 43.5 44.9149C43.7761 44.9149 44.0486 44.8528 44.2975 44.7333C46.2246 43.82 47.858 42.3858 49.0129 40.593C50.1679 38.8001 50.7984 36.72 50.8333 34.5877V29.6743C50.8352 29.2407 50.6825 28.8205 50.4026 28.4893C50.1227 28.158 49.734 27.9373 49.3061 27.8667C47.5275 27.5972 45.7709 27.1989 44.05 26.675C43.6905 26.5577 43.303 26.5577 42.9436 26.675C41.2239 27.1989 39.4684 27.5972 37.6911 27.8667C37.2637 27.9379 36.8756 28.1588 36.5963 28.49C36.317 28.8213 36.1647 29.2411 36.1666 29.6743V34.5877C36.2015 36.72 36.8321 38.8001 37.987 40.593C39.142 42.3858 40.7753 43.82 42.7025 44.7333ZM38 29.6771C39.8573 29.3941 41.6908 28.9728 43.4853 28.4167C45.2905 28.9692 47.1336 29.3892 49 29.6734V34.5877C48.9515 36.3722 48.4126 38.1089 47.4425 39.6075C46.4723 41.1061 45.1083 42.3086 43.5 43.0833C41.8911 42.3091 40.5266 41.1066 39.5563 39.6077C38.5861 38.1088 38.0476 36.3716 38 34.5867V29.6771Z" fill="white"/>
<path d="M42.5833 38.5H42.6484C42.7796 38.4904 42.9071 38.4527 43.0224 38.3894C43.1377 38.3262 43.2381 38.2388 43.3166 38.1333L46.0666 34.4667C46.2125 34.2722 46.2751 34.0277 46.2408 33.787C46.2064 33.5464 46.0778 33.3292 45.8833 33.1833C45.787 33.1111 45.6774 33.0586 45.5608 33.0287C45.4442 32.9988 45.3228 32.9922 45.2037 33.0092C44.963 33.0436 44.7458 33.1722 44.6 33.3667L42.4916 36.1872L42.3221 36.0177C42.1502 35.8457 41.917 35.749 41.6738 35.7489C41.4307 35.7488 41.1974 35.8453 41.0254 36.0172C40.8534 36.1891 40.7568 36.4223 40.7567 36.6654C40.7566 36.9086 40.8531 37.1418 41.025 37.3138L41.9416 38.2305C42.1118 38.4012 42.3423 38.498 42.5833 38.5Z" fill="white"/>
<path d="M28.8333 49.5H58.1666C58.4097 49.5 58.6429 49.4034 58.8148 49.2315C58.9867 49.0596 59.0833 48.8265 59.0833 48.5833C59.0833 48.3402 58.9867 48.1071 58.8148 47.9352C58.6429 47.7632 58.4097 47.6667 58.1666 47.6667H28.8333C28.5902 47.6667 28.357 47.7632 28.1851 47.9352C28.0132 48.1071 27.9167 48.3402 27.9167 48.5833C27.9167 48.8265 28.0132 49.0596 28.1851 49.2315C28.357 49.4034 28.5902 49.5 28.8333 49.5Z" fill="white"/>
<path d="M58.1666 51.3333H38.9166C38.6735 51.3333 38.4404 51.4299 38.2685 51.6018C38.0966 51.7737 38 52.0069 38 52.25C38 52.4931 38.0966 52.7263 38.2685 52.8982C38.4404 53.0701 38.6735 53.1667 38.9166 53.1667H58.1666C58.4097 53.1667 58.6429 53.0701 58.8148 52.8982C58.9867 52.7263 59.0833 52.4931 59.0833 52.25C59.0833 52.0069 58.9867 51.7737 58.8148 51.6018C58.6429 51.4299 58.4097 51.3333 58.1666 51.3333Z" fill="white"/>
<path d="M28.8333 53.1667H35.25C35.4931 53.1667 35.7263 53.0701 35.8982 52.8982C36.0701 52.7263 36.1666 52.4931 36.1666 52.25C36.1666 52.0069 36.0701 51.7737 35.8982 51.6018C35.7263 51.4299 35.4931 51.3333 35.25 51.3333H28.8333C28.5902 51.3333 28.357 51.4299 28.1851 51.6018C28.0132 51.7737 27.9167 52.0069 27.9167 52.25C27.9167 52.4931 28.0132 52.7263 28.1851 52.8982C28.357 53.0701 28.5902 53.1667 28.8333 53.1667Z" fill="white"/>
<path d="M59.0833 55.9167C59.0833 55.6736 58.9867 55.4404 58.8148 55.2685C58.6429 55.0966 58.4097 55 58.1666 55H28.8333C28.5902 55 28.357 55.0966 28.1851 55.2685C28.0132 55.4404 27.9167 55.6736 27.9167 55.9167C27.9167 56.1598 28.0132 56.3929 28.1851 56.5649C28.357 56.7368 28.5902 56.8333 28.8333 56.8333H58.1666C58.4097 56.8333 58.6429 56.7368 58.8148 56.5649C58.9867 56.3929 59.0833 56.1598 59.0833 55.9167Z" fill="white"/>
<path d="M58.3885 62.3608L54.7218 61.4442C54.5098 61.3911 54.2858 61.4154 54.0902 61.5129L53.202 61.9575L52.619 60.2103C52.5695 60.0622 52.483 59.9292 52.3678 59.8239C52.2525 59.7186 52.1122 59.6445 51.9603 59.6086C51.8083 59.5727 51.6497 59.5762 51.4995 59.6188C51.3492 59.6613 51.2124 59.7416 51.1019 59.8519L48.3519 62.6019C48.1849 62.7748 48.0925 63.0064 48.0946 63.2467C48.0967 63.487 48.1931 63.717 48.3631 63.8869C48.533 64.0569 48.7629 64.1533 49.0033 64.1554C49.2436 64.1575 49.4752 64.0651 49.6481 63.8981L51.3485 62.1977L51.7976 63.5397C51.839 63.6642 51.9067 63.7785 51.996 63.8746C52.0854 63.9708 52.1944 64.0466 52.3156 64.097C52.437 64.1468 52.5677 64.1701 52.6988 64.1655C52.83 64.1609 52.9587 64.1285 53.0764 64.0704L54.6063 63.305L57.9448 64.1392C58.0174 64.1572 58.0919 64.1664 58.1666 64.1667C58.3901 64.1662 58.6058 64.0841 58.773 63.9358C58.9402 63.7875 59.0475 63.5832 59.0746 63.3613C59.1017 63.1395 59.0469 62.9153 58.9204 62.7311C58.7938 62.5468 58.6053 62.4152 58.3885 62.3608Z" fill="white"/>
</svg>
