<svg width="87" height="98" viewBox="0 0 87 98" fill="none" xmlns="http://www.w3.org/2000/svg">
<path d="M39.6657 1.0265C42.0384 -0.342166 44.9616 -0.342166 47.3343 1.0265L83.1657 21.6956C85.5384 23.0642 87 25.5936 87 28.3309V69.6691C87 72.4064 85.5384 74.9358 83.1657 76.3044L47.3343 96.9735C44.9616 98.3422 42.0384 98.3422 39.6657 96.9735L3.83431 76.3044C1.46163 74.9358 0 72.4064 0 69.6691V28.3309C0 25.5936 1.46163 23.0642 3.83431 21.6956L39.6657 1.0265Z" fill="#FFA51D"/>
<path d="M69.5705 39.4696L37.8309 21.1161C37.7059 21.0435 37.5646 21.0036 37.4201 21.0002C37.2756 20.9968 37.1326 21.03 37.0043 21.0966L15.5427 32.125C15.4083 32.1947 15.2946 32.2987 15.2133 32.4265C15.1319 32.5542 15.0857 32.7012 15.0793 32.8526C15.0729 33.004 15.1066 33.1544 15.1769 33.2886C15.2472 33.4228 15.3517 33.536 15.4797 33.6168L31.3312 43.6311C31.5238 43.7527 31.7569 43.7926 31.979 43.7423C32.2011 43.6919 32.3941 43.5552 32.5156 43.3624C32.6371 43.1696 32.677 42.9364 32.6267 42.7141C32.5763 42.4918 32.4398 42.2986 32.2471 42.1771L17.6665 32.9671L37.3764 22.8348L67.4398 40.2223L47.6898 51.9382L47.2513 51.6609C47.0587 51.5393 46.8256 51.4993 46.6035 51.5497C46.3814 51.6001 46.1884 51.7368 46.0669 51.9296C45.9454 52.1224 45.9055 52.3556 45.9558 52.5779C46.0062 52.8002 46.1427 52.9934 46.3354 53.1149L47.217 53.6718C47.3507 53.7564 47.5052 53.8024 47.6634 53.8047C47.8217 53.8069 47.9774 53.7652 48.1135 53.6844L69.5785 40.9522C69.7075 40.876 69.8144 40.7672 69.8883 40.6367C69.9623 40.5062 70.0008 40.3586 70 40.2086C69.9992 40.0586 69.9591 39.9114 69.8837 39.7817C69.8084 39.6521 69.7003 39.5444 69.5705 39.4696Z" fill="white"/>
<path d="M42.3991 41.2639C42.4755 41.2639 42.5518 41.2639 42.6281 41.2639C45.9553 41.1734 48.5268 39.2106 48.4833 36.7953C48.4668 36.3175 48.3542 35.848 48.1522 35.4149C47.9502 34.9817 47.6628 34.5939 47.3074 34.2745C45.9627 33.1229 44.2258 32.5351 42.4587 32.6337C39.1327 32.7242 36.5612 34.687 36.6047 37.1023C36.621 37.58 36.7334 38.0494 36.9352 38.4826C37.1371 38.9157 37.4242 39.3036 37.7794 39.6231C39.0603 40.7286 40.7085 41.3139 42.3991 41.2639ZM42.4999 34.3455H42.6808C43.931 34.2937 45.1556 34.71 46.1156 35.5131C46.304 35.6784 46.4579 35.8793 46.5687 36.1042C46.6795 36.3291 46.745 36.5737 46.7613 36.8239C46.7865 38.2355 44.8699 39.481 42.5766 39.544C41.2675 39.6303 39.9747 39.2136 38.9621 38.3788C38.7735 38.2134 38.6195 38.0123 38.5089 37.7872C38.3983 37.562 38.3332 37.3172 38.3175 37.0668C38.29 35.654 40.2101 34.4074 42.4999 34.3455Z" fill="white"/>
<path d="M24.591 33.9136C24.4836 33.9989 24.3983 34.1089 24.3421 34.2341C24.2859 34.3593 24.2606 34.4962 24.2682 34.6332C24.2759 34.7703 24.3162 34.9035 24.3859 35.0217C24.4557 35.1399 24.5527 35.2397 24.6689 35.3126L44.6043 47.8637C44.7323 47.9444 44.8794 47.9898 45.0306 47.9952C45.1818 48.0007 45.3318 47.966 45.4652 47.8946C46.2313 47.4857 47.0722 47.2362 47.9371 47.1613H47.9497C49.0738 47.1285 50.1878 47.3816 51.1876 47.8969C51.3187 47.9738 51.4679 48.0143 51.6198 48.0143C51.7717 48.0143 51.9209 47.9738 52.052 47.8969L60.2874 43.0135C60.3952 42.9498 60.4878 42.8632 60.5586 42.7598C60.6294 42.6565 60.6767 42.5388 60.6972 42.4152C60.7177 42.2916 60.7109 42.165 60.6773 42.0443C60.6437 41.9236 60.5841 41.8117 60.5027 41.7165C60.1886 41.3922 60.0045 40.9638 59.9853 40.5126C59.9661 40.0614 60.1131 39.6189 60.3985 39.269C60.4698 39.1715 60.5198 39.06 60.5451 38.9418C60.5704 38.8236 60.5705 38.7013 60.5453 38.5831C60.5201 38.4648 60.4703 38.3533 60.399 38.2557C60.3277 38.1581 60.2366 38.0766 60.1317 38.0167L39.8757 26.3054C39.7577 26.2376 39.6254 26.1987 39.4895 26.1917C39.3537 26.1847 39.2181 26.21 39.0938 26.2653C38.2954 26.6153 37.4361 26.8049 36.5646 26.8233C35.6692 26.853 34.7771 26.6998 33.9427 26.373C33.8281 26.3271 33.7049 26.3062 33.5815 26.3118C33.4581 26.3173 33.3373 26.3491 33.2272 26.4051L25.8333 30.2046C25.6349 30.3068 25.4841 30.4822 25.4127 30.6937C25.3414 30.9052 25.355 31.1362 25.4509 31.3378C25.5628 31.5676 25.6237 31.819 25.6295 32.0746C25.6092 32.4403 25.5049 32.7965 25.3248 33.1154C25.1447 33.4343 24.8936 33.7075 24.591 33.9136ZM27.2724 31.3928L33.6748 28.1055C34.6205 28.4224 35.6148 28.5691 36.6116 28.5386C37.5586 28.5158 38.4951 28.3345 39.3823 28.0024L58.5426 39.0823C58.3455 39.5442 58.2519 40.0438 58.2686 40.5458C58.2852 41.0479 58.4115 41.5401 58.6387 41.988L51.586 46.1702C50.4424 45.6724 49.2059 45.4244 47.9589 45.4426C46.9724 45.4819 46.0046 45.7245 45.116 46.1553L26.4939 34.4315C27.0482 33.7597 27.35 32.9149 27.3468 32.0436C27.3427 31.8259 27.3178 31.6092 27.2724 31.3962V31.3928Z" fill="white"/>
<path d="M21.8478 43.0914C22.0338 43.0913 22.2147 43.0306 22.3634 42.9187C22.512 42.8068 22.6203 42.6495 22.6719 42.4707C22.7236 42.2918 22.7158 42.1011 22.6498 41.927C22.5837 41.753 22.463 41.6051 22.3058 41.5056L16.359 37.7474C16.1664 37.6259 15.9333 37.5859 15.7112 37.6363C15.4891 37.6867 15.2961 37.8233 15.1746 38.0161C15.0531 38.2089 15.0132 38.4421 15.0635 38.6644C15.1139 38.8867 15.2504 39.0799 15.4431 39.2014L21.3898 42.9585C21.5267 43.0456 21.6856 43.0917 21.8478 43.0914Z" fill="white"/>
<path d="M69.8464 45.3601C69.7885 45.2632 69.7122 45.1786 69.6216 45.1112C69.5311 45.0438 69.4282 44.995 69.3188 44.9674C69.2094 44.9399 69.0956 44.9341 68.984 44.9506C68.8724 44.9671 68.7651 45.0054 68.6683 45.0634L47.6521 57.5194L47.2479 57.265C47.1526 57.2006 47.0453 57.156 46.9324 57.1339C46.8196 57.1117 46.7034 57.1125 46.5909 57.1362C46.4783 57.1598 46.3716 57.2059 46.2772 57.2716C46.1828 57.3373 46.1025 57.4213 46.0411 57.5186C45.9797 57.616 45.9385 57.7247 45.9199 57.8383C45.9014 57.9518 45.9057 58.068 45.9329 58.1799C45.96 58.2917 46.0093 58.397 46.0779 58.4894C46.1464 58.5818 46.2328 58.6595 46.332 58.7179L47.1792 59.253C47.316 59.3402 47.475 59.3863 47.6372 59.3859C47.791 59.3877 47.9424 59.3481 48.0757 59.2713L69.5407 46.5414C69.6387 46.4844 69.7245 46.4085 69.793 46.3181C69.8615 46.2276 69.9115 46.1245 69.9399 46.0146C69.9683 45.9048 69.9747 45.7904 69.9586 45.678C69.9426 45.5657 69.9044 45.4576 69.8464 45.3601Z" fill="white"/>
<path d="M16.3602 42.5426C16.1675 42.421 15.9345 42.3811 15.7124 42.4315C15.4902 42.4818 15.2972 42.6185 15.1757 42.8113C15.0543 43.0041 15.0143 43.2373 15.0647 43.4596C15.115 43.6819 15.2516 43.8751 15.4442 43.9966L17.8726 45.5331C18.0653 45.6547 18.2983 45.6947 18.5204 45.6443C18.7425 45.5939 18.9356 45.4573 19.057 45.2644C19.1785 45.0716 19.2184 44.8384 19.1681 44.6161C19.1177 44.3938 18.9812 44.2007 18.7885 44.0791L16.3602 42.5426Z" fill="white"/>
<path d="M68.6683 49.8551L47.6521 62.3157L47.2479 62.0613C47.1526 61.9969 47.0453 61.9523 46.9324 61.9302C46.8196 61.9081 46.7034 61.9088 46.5909 61.9325C46.4783 61.9562 46.3716 62.0022 46.2772 62.0679C46.1828 62.1336 46.1025 62.2176 46.0411 62.315C45.9797 62.4123 45.9385 62.521 45.9199 62.6346C45.9014 62.7482 45.9057 62.8643 45.9329 62.9762C45.96 63.088 46.0093 63.1933 46.0779 63.2857C46.1464 63.3781 46.2328 63.4558 46.332 63.5142L47.1792 64.0493C47.3159 64.1368 47.4748 64.1834 47.6372 64.1834C47.7909 64.185 47.9424 64.1455 48.0757 64.0688L69.5407 51.3389C69.6397 51.2824 69.7266 51.2068 69.7961 51.1163C69.8656 51.0259 69.9165 50.9225 69.9456 50.8122C69.9748 50.7019 69.9818 50.5869 69.966 50.4739C69.9503 50.3608 69.9123 50.2521 69.8541 50.1539C69.796 50.0558 69.7189 49.9702 69.6273 49.9022C69.5358 49.8342 69.4316 49.7851 69.3209 49.7579C69.2102 49.7306 69.0951 49.7256 68.9825 49.7433C68.8699 49.761 68.7619 49.8009 68.6648 49.8608L68.6683 49.8551Z" fill="white"/>
<path d="M29.9504 76C37.1978 76 44.9019 74.0132 44.9019 70.3317V51.4798C44.9012 51.3612 44.8754 51.2441 44.8264 51.1361C44.0765 47.8202 36.8119 46.035 29.9504 46.035C23.0889 46.035 15.8232 47.8202 15.0756 51.1361C15.0265 51.2441 15.0007 51.3612 15 51.4798V70.3317C15 74.0132 22.703 76 29.9504 76ZM29.9504 74.2813C21.7516 74.2813 16.7174 71.9805 16.7174 70.3317V67.5302C19.3885 69.4483 24.7776 70.4658 29.9504 70.4658C35.1232 70.4658 40.5135 69.4483 43.1846 67.5302V70.3317C43.1869 71.9805 38.1492 74.2813 29.9504 74.2813ZM43.1869 58.2504C43.1869 59.8992 38.1492 62.2 29.9527 62.2C21.7562 62.2 16.7174 59.8992 16.7174 58.2504V54.4372C19.3885 56.3552 24.7776 57.3727 29.9504 57.3727C35.1232 57.3727 40.5135 56.3552 43.1846 54.4372L43.1869 58.2504ZM29.9504 63.9187C35.1232 63.9187 40.5135 62.9012 43.1846 60.9831V64.7975C43.1846 66.4463 38.1469 68.7471 29.9504 68.7471C21.7539 68.7471 16.7174 66.4463 16.7174 64.7975V60.9831C19.3885 62.9012 24.7776 63.9187 29.9504 63.9187ZM29.9504 47.7537C38.1492 47.7537 43.1869 50.0545 43.1869 51.709C43.1869 53.3635 38.1492 55.6597 29.9527 55.6597C21.7562 55.6597 16.7174 53.3532 16.7174 51.709C16.7174 50.0648 21.7516 47.7537 29.9504 47.7537Z" fill="white"/>
</svg>
