<svg width="35" height="36" viewBox="0 0 35 36" fill="none" xmlns="http://www.w3.org/2000/svg">
<path opacity="0.5" d="M0.731335 1.71244C1.19975 1.24376 1.83497 0.980473 2.49731 0.980473C3.15965 0.980473 3.79487 1.24376 4.26329 1.71244L17.4844 14.9449L30.7055 1.71244C30.9359 1.47366 31.2115 1.28321 31.5163 1.15219C31.821 1.02116 32.1488 0.952198 32.4804 0.949313C32.8121 0.946429 33.141 1.00968 33.448 1.13539C33.755 1.26109 34.0339 1.44672 34.2684 1.68145C34.5029 1.91618 34.6884 2.19531 34.814 2.50255C34.9396 2.80979 35.0028 3.13899 34.9999 3.47094C34.997 3.80289 34.9281 4.13094 34.7972 4.43595C34.6663 4.74096 34.476 5.01682 34.2374 5.24744L21.0163 18.4799L34.2374 31.7124C34.6924 32.1839 34.9442 32.8154 34.9385 33.4709C34.9328 34.1264 34.6701 34.7535 34.207 35.217C33.7439 35.6805 33.1174 35.9434 32.4625 35.9491C31.8075 35.9548 31.1766 35.7028 30.7055 35.2474L17.4844 22.0149L4.26329 35.2474C3.79219 35.7028 3.16123 35.9548 2.5063 35.9491C1.85137 35.9434 1.22488 35.6805 0.761763 35.217C0.298642 34.7535 0.0359463 34.1264 0.0302552 33.4709C0.024564 32.8154 0.276333 32.1839 0.731335 31.7124L13.9524 18.4799L0.731335 5.24744C0.263062 4.77862 0 4.14285 0 3.47994C0 2.81703 0.263062 2.18126 0.731335 1.71244Z" fill="#3D3D3F"/>
</svg>
