<svg width="40" height="40" viewBox="0 0 40 40" fill="none" xmlns="http://www.w3.org/2000/svg">
<path fill-rule="evenodd" clip-rule="evenodd" d="M4.71353 1.27548C5.15095 0.838686 5.6762 0.499844 6.25447 0.281414C6.83274 0.0629829 7.45083 -0.0300489 8.06777 0.00848342C8.68471 0.0470157 9.28642 0.216232 9.83303 0.504919C10.3796 0.793606 10.8586 1.19517 11.2383 1.683L15.7257 7.44827C16.5482 8.50582 16.8382 9.88338 16.5132 11.1834L15.1457 16.6587C15.075 16.9423 15.0788 17.2393 15.1568 17.521C15.2348 17.8027 15.3842 18.0594 15.5907 18.2663L21.733 24.409C21.9401 24.6159 22.1972 24.7657 22.4794 24.8437C22.7615 24.9216 23.059 24.9252 23.3429 24.8541L28.8153 23.4865C29.4568 23.3261 30.1264 23.3136 30.7734 23.4501C31.4205 23.5865 32.028 23.8683 32.5502 24.274L38.315 28.7592C40.3874 30.3718 40.5774 33.4345 38.7225 35.287L36.1375 37.8722C34.2876 39.7222 31.5227 40.5348 28.9453 39.6272C22.3484 37.306 16.3588 33.5291 11.4208 28.5767C6.4692 23.639 2.69261 17.6499 0.371166 11.0534C-0.533806 8.47832 0.278669 5.71069 2.12861 3.8606L4.71353 1.27548Z" fill="#154DC8"/>
</svg>
