<svg width="40" height="40" fill="none" xmlns="http://www.w3.org/2000/svg"><path fill-rule="evenodd" clip-rule="evenodd" d="M4.714 1.275a4.362 4.362 0 0 1 6.524.408l4.488 5.765a4.361 4.361 0 0 1 .787 3.735l-1.367 5.476a1.695 1.695 0 0 0 .445 1.607l6.142 6.143a1.695 1.695 0 0 0 1.61.445l5.472-1.367a4.361 4.361 0 0 1 3.735.787l5.765 4.485a4.362 4.362 0 0 1 .407 6.528l-2.584 2.585c-1.85 1.85-4.615 2.663-7.193 1.755a46.58 46.58 0 0 1-17.524-11.05A46.588 46.588 0 0 1 .37 11.053C-.534 8.478.28 5.711 2.13 3.861l2.585-2.586Z" fill="#154DC8"/></svg>